/* XPM */
static char *_8b100d8c1c64826f794bbb4e465edd3yiT46NBi6xfuEUq0[] = {
/* columns rows colors chars-per-pixel */
"64 64 121 2 ",
"   c #44839D",
".  c #4686A1",
"X  c #4788A3",
"o  c #488BA6",
"O  c #4A8EAA",
"+  c #4D92AD",
"@  c #4F95B1",
"#  c #5097B3",
"$  c #529AB6",
"%  c #559EBA",
"&  c #57A1BD",
"*  c #58A3BF",
"=  c #5AA6C2",
"-  c #5CA9C5",
";  c #5EADCA",
":  c #60AFCB",
">  c #77AFCF",
",  c #7EADCE",
"<  c #61B2CE",
"1  c #7EB0CF",
"2  c #7EAFD0",
"3  c #63B5D2",
"4  c #66B9D6",
"5  c #67BCD8",
"6  c #69BEDB",
"7  c #7EB3D3",
"8  c #7DB8D7",
"9  c #7EB7D9",
"0  c #7EBBDB",
"q  c #7FBEE0",
"w  c #6BC2DD",
"e  c #7DC0DF",
"r  c #6DC6E2",
"t  c #6FC8E5",
"y  c #7EC3E2",
"u  c #71CCE6",
"i  c #7FCAE7",
"p  c #72CDEA",
"a  c #7DCAE9",
"s  c #73D0E7",
"d  c #75D2ED",
"f  c #7CD4EF",
"g  c #7BDCED",
"h  c #73CFF0",
"j  c #76D5F1",
"k  c #7AD6F3",
"l  c #7BDCF4",
"z  c #7BDDF9",
"x  c #7EE1F5",
"c  c #7EE1FA",
"v  c #82ACCF",
"b  c #84ADD1",
"n  c #8BADD4",
"m  c #8FAED8",
"M  c #90AED7",
"N  c #93AFD9",
"B  c #9EAFDF",
"V  c #81B3D4",
"C  c #8BB1D7",
"Z  c #82B8D7",
"A  c #83B6D9",
"S  c #8DB2D9",
"D  c #81BCDC",
"F  c #95B1DB",
"G  c #99B2DE",
"H  c #9DB5E1",
"J  c #97B8E1",
"K  c #9FBAE5",
"L  c #A2B6E5",
"P  c #A4B9E6",
"I  c #AABBE7",
"U  c #A6B9E9",
"Y  c #ABBCEC",
"T  c #B1BFED",
"R  c #AEBDF0",
"E  c #B1BFF1",
"W  c #80C1DF",
"Q  c #81C4E3",
"!  c #89C2E6",
"~  c #81C9E7",
"^  c #8DC7E9",
"/  c #82CCEA",
"(  c #85D0E7",
")  c #84D2ED",
"_  c #85D9EE",
"`  c #84D4F2",
"'  c #86DBF4",
"]  c #89DDF3",
"[  c #87DDFA",
"{  c #88DEFB",
"}  c #ADC2EB",
"|  c #B3C1ED",
" . c #BAC2EF",
".. c #B4C1F3",
"X. c #BBC5F5",
"o. c #BFC8F6",
"O. c #B6C2F8",
"+. c #BBC5FA",
"@. c #BFC8FD",
"#. c #82E4F6",
"$. c #88E3F6",
"%. c #8BE8F7",
"&. c #82E5FC",
"*. c #89E4FC",
"=. c #84ECFD",
"-. c #8CECFE",
";. c #87F1FF",
":. c #8CF4FF",
">. c #8EFAFF",
",. c #90F6FF",
"<. c #91FCFF",
"1. c #C1C7F7",
"2. c #C2C8F7",
"3. c #C0C7F8",
"4. c #C4CAFB",
"5. c #CACEFE",
"6. c #D0CDFD",
"7. c #CED0FF",
"8. c #D4D3FF",
"9. c #D9D6FF",
"0. c #DBD8FF",
/* pixels */
"2 V M M G N v 7 C | 4.5...P X.8.7.9.7.| G M N Y n ] ;.p t t =.-.*.-.>.<.<.>.=.s < % % % = ; : ; % + @ $ % & r p 4 u :.-.] -.:.;.",
"Y V > 7 , , V I 6.8.7.8.9.7.8.5.5.O.L n n n n b ) :.p d j 5 ; 6 r g l x &.u - # .       . o + + $ < w r < - 5 4 #.;.~ V 7 0 $.>.",
"9.2.| | }  .5.5.| G F L X.9.7.P G M b v v b A ' >.d 6 z =.=.u - $ $ $ = 3 & . . @ % & = = = = 5 x >.>.>.d < w >.] Z v M n 7 ) :.",
"2.o.o.o.1. .Y m , 7 7 7 b L E N v v V b D _ :.>.c 5 3 u z =.&.k w = + o $ O   % 3 t l l l x c >.-./ y $.:.w g $.1 v n v 2 Q -.<.",
"M v , > 1 7 7 7 D ~ / ~ D 8 b b , 7 D ` >.;.l p t 4 - - 4 u l z s 4 * o . X X - d ;.>.>.<.<.>.>./ 8 7 Q >.d x -.0 7 b D ` <.:.] ",
"n V 7 7 8 Q / / / ` { { *.*.] / ~ ` :.>.l r 3 < 4 6 3 * # % < 6 w 4 - % o   X = d ;.>.>.>.;.=.>.,./ D / ,.&.&.>.-.` ] :.>.( 0 7 ",
"F 7 V V 7 ~ [ ~ y Q ' -.<.>.>.<.>.<.:.s 4 3 ; = 3 ; & % # O + $ & = - * $ o X # ; w t w 4 < 3 6 l <.-.[ ,.:.-.-.>.<.:.] V 2 v n ",
"P V Q e Q *.' 0 9 y / -.<.>.:.>.:.;.l 4 : ; ; & % & < 3 - # .     o @ & & $ + @ $ $ % = 4 t d x d j :.>.>.>.:./ ~ ) 9 b n b n I ",
"B V ) ` [ -.` ~ *.:.:.-.:.=.x l p r 4 ; = = & $ % 3 j l r = +     . o + % % @ # : 4 u f z l l ;.<.-.=.>.<.>.:.q v M H L G N Y 6.",
"b D { *.-.>.-.>.>.<.>.:.;.=.=.=.:.:.l 4 = % @ $ = 5 d j r : & + o o $ + @ & - & * 4 w w 5 w r j >.) ) -.>.>.[ 7 M P I P L P 4.9.",
"0 ' -.*.-.<.>.>.>.>.<.:.,.-.:.:.-.>.>.k 3 & $ % = 3 w w 4 < - = & + & 4 # & 5 5 - : < w s l =.&.:.' v A e W 8 b N H G G G Y 5.9.",
"[ -.:.*.*.,.>.=.=.:.<.:.*.*.[ %.:.>.>.d 4 = % % & * * * * * = - : $ % l w & 4 u 6 5 w d c >.>.>.>.$.b T I G M G P P G G F R 8.6.",
"<.<.,.>.>.>.:.z z d &.>.<.>.<.>.:.x t 3 = $ + o o o X   X o + $ & % = =.>.r < 3 5 t p l c ;.>.>.:.i v X.0.8.8.8.5.Y M F N n T 9.",
"<.<.>.>.;.&.l j &.s 4 d #.#.d 6 ; & # + + o       X $ = < < - & $ % t :._ -.&.x =.-.:.:.=.:.$.) 8 b H 5.8.3.T 4.8.2.P ....T 4.2.",
",.,.:.>.:.z j l ;.z < - ; = $ $ $ % $ $ + + + $ = r x =.:.>.=.&.x #.>.-.9 A / ( Q W D D D A M K X.5.9.9.9.3.n b K 4.9.9.9.X.L ! ",
"*.:.,.,.>.>.;.:.>.c 4 = & & 3 p x l d p w w r d ;.;.j r s :.-.~ ) ] ' e 2 n L I |  . .1.1.5.8.5. .T T X.O.U n 0 9 n I } G 7 _ -.",
",.<.>.>.>.>.<.>.=.t < - < u =.=.j p s z =.>.<.<.>.=.u w p =.:.A v n b b n H @.9.9.9.9.5.2.| G N n , , b n b , / -.Q 7 7 Q *.&.x ",
"<.>.:.=.=.=.x d 4 - - 3 j >.:.t 3 < 6 d =.>.,.>.>.>.:.=.>.<.*.8 n R 3.1.2.5.8.9.8.9.5.R G v v b v Z Q 8 b , 8 ' <.-./ _ :.=.#.Q ",
":.<.>.=.l t 3 = & % - p >.<.j 3 < 6 d ;.<.-.' / ~ ) _ ' _ a 8 v n I 8.9.9.4.4.4.5.o.L M n , D Q Q *.[ Q 8 Z D -.:.l =.=.;.$.C G ",
"' *.,.>.c 6 - $ @ & r -.-.:.u 4 t &.>.-.) 0 2 b n M G J G G G J L E 4.8.8...n n n n v 7 Q / [ >.>.<.-.` D y ' >.u = : d :.8 G @.",
"Z 8 i -.>.j ; = % 6 :.*.:.;.j x :.-.~ A n M K Y O.O.4.5.8.8.8.9.5.5.5.8.9.3.n 8 q 0 / [ >.>.<.>.>.<.,.[ Q D ` ,.u - < x ,.Q n G ",
"v 7 , D ] >.x r s >._ ` >.:.:.-.~ n M N L O.5.8.5.O.P R 4.9...| 8.9.8.8.8.4.n q *.:.>.>.;.:.>.:.=.>.,.-.{ [ [ ,.>.t = = u >.$.~ ",
"b 8 0 7 2 / -.:.-.Q Q ,.>.<.%.9 M G F L O.8.8.8.9.2.H G E 9.| v J 4.8.8.9.T V ` <.>.>.:.z z &.=.=.<.,.*.*.-.<.,.>.:.l < 3 &.<.<.",
"b 8 Q W V v V D 7 A -.<.<.:.A L @.I U X.9.8.4.O.2.9.4.R o.9.Y 8 9 M o.6.3.M 8 -.>.:.>.-.>.-.>.>.:.:.-.-.*.:.,.,.>.` _ $.&.:.<.[ ",
"F b 8 e 8 b b v v Q -.,.:./ n 4.9.7.8.9.2.Y +.Y n K 4.8.9.4.M a / v H E H b ~ *.{ [ / a a ' { [ [ ,.>.,.>.>.:.>.) b n n A Q ) Q ",
"P n v V , v b n b V Q ' / 7 G 8.4.7.5.U n L @.4.F > V P E G v ` D n P R G 2 ] :.` i 0 7 > 2 7 9 V W ` *.>.;.=.( G 4.8.3.M b v n ",
"O.L M M G K Y X.E H b V 7 v ..9.P F G b n P 5.8.4.F Z 2 b v 8 Q 2 G +.+.G b ' -.[ i Q 0 q Q D V v v 0 [ :.:.` b 2.9.9.4.G G N M ",
"5.4.4.4.5.8.8.8.9.8.X.H n H 2.9.E n n b b P 7.8.9.2.F V 7 V 0 8 n Y 4.@.K v / *.*.{ ) ~ Q / { -.] %.-.-.` y n P 4.9.2.K G M n v ",
"8.9.9.9.8.8.8.8.8.5.9.5.R Y 4.9.4.G H L n M 5.9.8.9.+.n 2 Z 8 b H 3.7.4.L b A ` ` ) y 7 7 b 0 *.>.>.>.[ 8 v H 8.9.8.8.4...L M n ",
"8.8.8.5.8.8.8.8.8.7.8.8.4.O.4.8.5.I 5.8.5.H H 8.8.8.8.P n b V b H 4.5.3.H b 8 8 8 7 2 V 8 8 8 8 n V 0 / 8 v N E 4.5.8.8.8.5.E I ",
"8.7...Y R 4.8.8.8.8.8.8.6.5.7.9.4.5.9.5.5.9.Y Y 8.8.7.R n v v b H @.@.Y N , 7 7 b 2 b 2 b b 7 b N I N v b G ..5.o.O.5.9.8.8.8.8.",
"5.P M M H +.8.8.8.8.8.8.8.8.8.8.5.8.Y n m ..9.I ..7.2.H n n M b M U Y G b , > 7 , b , 8 8 2 , b N E O.X.X.8.8.9.7.4.4.8.8.8.5.8.",
"H n n n P 8.8.5.8.8.7.5.5.8.8.8.9.E v 7 , b 4.6.Y ..Y H Y 2.4.Y n n n v v I  .| I X.X.| | } G n G ..7.9.2.Y | |  .8.9.9.5.P N L ",
"n b b n ..8.O.R O.4.o.O.@.8.8.8.5.J , 8 Z n | 9.4.O.X.8.9.8.9.9.E H G L X.8.} L X.6.4.T | 5.8.o.R ..9.4.G , > > V M G | Y v , v ",
"b b n H o.O.L H R E R R E 3.8.8.5.L b b v n E 8.9.9.8.3.I G H 4.0.9.6.9.0.5.G v n G K N F ..8.8.4.4.4.n , , G o.8.5.F , C v 8 D ",
"b b N U H G H P @.@...Y L U X.8.8.E G n n H 4.8.8.4.L b b m m H 4.4.5.X...5.9.8.4.E U K R 4.8.8.9.9.J C J I 4.9.5.9.4.n 7 8 Q / ",
"b n M b b b G Y Y ..@.U G N G X.8.5.O.X.3.5.8.8.8.P v G X.5.o.P R U M n n G P | 4.0.8.o.@.8.8.5.9.T L 4.9.8.7.5.4.9.5.m 7 ~ / ' ",
"b 2 0 / D 7 n G b n Y U M b n F 3.8.8.8.8.8.9.8.4.M G 5.9.9.8.+.5.8.Y n v v v F R 7.7.5.4.5.4.E P n P 5.8.8.9.9.8.4.L V ~ ~ / [ ",
"7 / :.<.-.y v n b b N H n v b n Y @.X.E Y P ..9.X.n 4.9.8.5.L M 2.0.6.P n L X.O.O.+.4.4.4.4.o.L n G E 8.8.4.T P J A 0 y y ~ Q ` ",
"D -.:.=.>.-.A v b b M M n b v F Y E Y G n n N 2...P 9.7.9.5.M v Y o.8.9.5.8.5.E X.5.5.4.O.O.I G N P E T J b , > 8 8 9 Q ' [ ) y ",
"/ >.&.=.:.>.-.Q V n b V b b M F n n P U M n N O.P 2.9.7.8.Y D Q V n Y 2.5.o.@.5.9.8...H C C N N M v , , 2 b v Z A D ` *.,.,.*./ ",
"/ >.=.<.-.-.-.:.*.` / y 8 b n b 2 b n K G G P I U 8.9.5.8.K 0 j 9 , n G H G Y E 8.I 2 , v v v M L n b n M V Q ) [ *.-.:.,.<.-./ ",
"` -.<.,.' 0 8 D A D D D 0 7 v b b b n n G H E 5.8.2.4.5.8.5.G G K Y X.5.5.X.N v G N 7 V B M n M ..U K P n y / Q ` *.:.<.<.>.' A ",
"` *.>.<.[ 8 v G P P K n 7 7 b b b b n M n G 4.9.7.O...8.5.4.8.8.8.0.8.5.8.9.X.2 0 W D b G n n P 4...+.Y V ` ` Q ` -.<.<.,.[ 8 b ",
":.-.*.-.-.y v ..8.8.7.E N b b n n N K H N G ..5.8.8.9.9.5.4.9.8.5.T L Y R 5.8.K Z ) i , M H L O.8.+.4.o.b / :.-.<.<.<.-.' 8 b n ",
"<.:.) i / ` 7 H 5.7.5.I M v n N N H E 8.5.4.5.8.7.8.5.X.5.7.5.8.6.X.E O.Y 5.9.X.v V n K 2.5.4.5.8.@.+.8.I 2 / -.$.' ) Q 7 b G M ",
"-.D n B M 8 ~ A F K G n n L X.2.E ..5.8.8.8.9.0.9.4.@.7.5.7.E U 8.7...R H Y 8.8.Y I 4.9.9.8.8.8.8.+.E 5.9.T n b b n n b n G R H ",
"[ b P 8.4.G y D v , , n R 4.8.9.8.8.9.8.T L T X.2.8.5.5.8.9.4.F  .9.P G n H 5.8.8.8.0.6.8.8.8.8.8.4.R R 5.9.7.X.4.5.4.+.R I R O.",
"` D K 4.5.I v n U M N U L N H +.8.7.5.8.7.I n v Y 0.O.R 5.9.7.P N 6.2.N n H 5.8.O.3.@.o.8.8.8.8.8.5.Y H Y 3.8.8.5.5.9.8.O.G N H ",
"7 0 b F H b b Y 5.4.o...L b n L 4.8.| G K P G H 4.6.+.3.5.8.5.H b E 9.Y n J 4.8.E L U O.8.8.8.4.8.5.H n n M L L J U 4.9.T b V 2 ",
"G F V V b G | 8.8.7.8.8.8.O.U E 4.9.8.F 8 7 n X.9.+.U 4.9.8.T n v H 9.5.P L 2.9.4.R Y +.4.8.4.+.9.X.n 2 7 7 b b b B 5.8.L 2 Q / ",
"2.6.5.5.5.8.9.5.O.L K Y 4.9.8.8.9.5.Y n y / b X.9.5.4.8.9.Y n V V n 2.9.4.E 5.8.7.E U Y E +.U Y 9...b 8 Q D V b b E 8.8.K 7 ` *.",
"9.8.9.9.8.8.8.9.4.N v b n I 5.6.8.5.E P S 0 C ..8.8.9.5.I b 8 D 8 v P 6.9.8.8.9.+.H N H L K n I 9.| 2 Q / Q b b U 8.8.5.H , Q ) ",
"9.8.5.4.5.8.8.Y m V 0 Q ~ 0 D S L X.9.8.8.I M ..+.o.Y M 7 Q Q 8 D 7 v L 5.8.8.4.G b b n n n v B 8.X.b 8 Q 8 n T 8.5.5.8.L n b 8 ",
"@.9.7.@.7.8.P 7 / *.:.>.>.>.:._ 8 n 4.9.9.8.S A n n , 9 ' ' A 9 / / D v F P I N b 7 b 7 b b b b X.5.F 2 V b I 9.5.4.8.3.H M n v ",
"M 4.9.o.2.8.P 0 [ >.>.>.<.>.>.:.>.D G 5.8.E A -.` Q ) *.-.[ y ` [ / ` ~ 7 v b 8 8 2 v 8 b b b , K 8.I v b b 3.8.8.5.Y M M N P P ",
"Z M 4.5.4.0.X.v v Q >.=.:.<.<.:.=.-.7 F K v 8 -.<.>.:.,.<.-.*.-.` y / [ ` y D y 8 b b 8 b G I P G 8.Y v 7 b E 9.4.M v v v F K M ",
"' Q B 5.1.L A 2 V ] =.h =.<.<.>.l :./ v n v D [ <.<.<.,.,.:.,.<.*.) [ *.` 0 8 y 8 v , b T 5.8.8.4.7.Y , V b G 3.F 7 Q Q 7 n b , ",
"` ,._ ^ D ) :.-.-.:.t x -.:.>.<.j #.-.9 v 7 D ' -.,.-.-.*.[ -.>.,.-.*.a 7 n n b v v K 4.8.| F F ..9.I 7 Q 8 V G 8 ` *.[ y V v 7 ",
"/ :.>.=.=.=.x l s < d <.' ) >.>.t d <.) Q Q ` [ { ` y 0 Z D 0 i / y 7 n P X.4.1.Y X.8.5.G , 0 0 v | J 8 [ ] D , Q :.<.<.*.D , V ",
"Z 8 Q ) -.g 3 - $ = c >.{ *.<.z < u >.,.-.-.*.{ y 7 b M N M n n b N Y 5.9.9.9.9.9.9.X.n 8 / *.*.Q n n $.>.<.-.8 ] <.>.>.>.' 0 7 ",
"/ Q Z Q *.<.c - % p <.*.` *.<.=.d =.>.<.>.-.:.' 8 n Y 4.5.4.O.Y E 5.9.8.4.E Y ..2.Y n 7 / -.,.:.` , ` >.k l >.' *.>.;.=.>.,.' / ",
":.-.` Q ) ,.=.3 s <.$.0 7 Q -.<.>.*./ ' -.:.*./ b U 8.8.8.9.8.6.9.9.8.E H N N G H n b D ' -.>.-.) ( ;.4 - : l -.:.>.&.&.>.<.-.[ ",
"- g -./ / -.>.&.>.` 8 n M b / <.-.) D ~ [ Q A 8 n X.9.8.8.8.8.8.8.8.4.I N n M F G m b D ` *.:.*.] ;.3 + + $ r >.>.;.z z :.,.{ ` "
};
