/* XPM */
static char *cc031f536bf6424fb161223407882c55YIElCU4b3P5G307Q[] = {
/* columns rows colors chars-per-pixel */
"128 128 67 1 ",
"  c #B74F3F",
". c #B84F3F",
"X c #B7533E",
"o c #B9523F",
"O c #BD3E46",
"+ c #BF3C48",
"@ c #C13D47",
"# c #C7374A",
"$ c #CE374E",
"% c #C43B49",
"& c #CB394D",
"* c #D1374F",
"= c #D23A4E",
"- c #D93D4F",
"; c #CF3B50",
": c #D53751",
"> c #DC3753",
", c #D53951",
"< c #DC3A52",
"1 c #DE3C59",
"2 c #E43755",
"3 c #E93757",
"4 c #E33A55",
"5 c #EA3A56",
"6 c #E63758",
"7 c #ED3758",
"8 c #E53A5A",
"9 c #EC395B",
"0 c #F03B57",
"q c #F3375A",
"w c #F9375C",
"e c #F4395C",
"r c #FC385E",
"t c #EE3B61",
"y c #FC3760",
"u c #F53A62",
"i c #FE3A63",
"p c #F73C68",
"a c #FF3C6A",
"s c #BB4444",
"d c #B74D40",
"f c #BB4C42",
"g c #BB5140",
"h c #C24446",
"j c #C84647",
"k c #C34B45",
"l c #C94B46",
"z c #C54248",
"x c #CB434A",
"c c #C74948",
"v c #CB4A49",
"b c #D3434C",
"n c #DA434E",
"m c #D1484B",
"M c #C05042",
"N c #D54251",
"B c #DC4353",
"V c #DC4856",
"C c #DD4158",
"Z c #E0414F",
"A c #E34154",
"S c #E84056",
"D c #E54259",
"F c #EC415C",
"G c #F0405F",
"H c #EE4160",
"J c #F04063",
/* pixels */
"j&>7A<=quup92hX.Xs#99<<<ZhdssO@xs@#*@#qwiiq21>#O@:yayiuawhOOss..XXXo..sqiy999$@s.s>yq228b..ss.....sh@sx=6aat:b&>qqq9q882>=%96<&x",
">>2qyyis2qyyaq#@:6tyu4h=.O+O..sx@#::$+OdxrwyaayayaaiwqwMXohsh.MXhd.M..MXs=<yuyuq22aay44......X.XX..ssxx.@wa861iaypayyy*-kiyyq2><",
"8wyyyyyi=22yaw#$3qu78nxo$+OsM.s@#*>2*+O..>9uaayyaawwq2@sXX.M..ssss.s..Moohbyay9wr9aau<koX..s.s..o..sd@=s.#6681yyaayyy75fyiyiyiu8",
"9yyayiix02wyaw::3wwJt1n%.#@h..s@>*>>*#Odxyaaaayiaiwwww2hoXXX...sshdsss.Xf=Naaaiiiaaai99fo.ss.shs.f.ss@j..*iyi-9iapaaay>4xaayyay9",
"4uye8229qwiyi*@.hd@4D9uy7@.hs.sO>>>>$#9yaaaaw-=-wwwwwwwqysdX.oMsssdssshwa9Nqw2###*wiiyaa9sXXd.khfs.sss@=7yaa9mmb=2eiaiiyq6=eiiqA",
"=222uyai7>-5,w*=*>*b,<9waa>%f..O*>>>q7yaar*.Xhhd.ddd@22qyq2$hddsssO:qiaaem@dM.M...Xgd<wyiyaq&kkfddfs$wuq2>*=b=mN2q7-n==uyayu292b",
"6auaayq45Fiqaw:Z55-FDHB##w6;:>>aaqywqwi3s..X.d..d@dd@2>Oq8<22ypiyaaaaawx.dsss.ss.MXXoo.M>wiyi9>::;8>22@.h>wiw7>,>229><%bnqayaya8",
"9puiy25&GGeyaw:2-*=FFF97ssx==6iaaywwwi#dssX.ddd.h@@.O>*s.@kx:yyaaaypu2hosssdss..MM.XX  d.#qyiiq>;:6;&s..@>qyirww6>:1,,n-jx9iiyaD",
"4auww2445e5uaq##+s*595q7@O$9qqiyaawwyy4s..Xdssdh.hshO*#s.&cv$aayaaiyui>o.dsd.s..Ms.XXX  .xqryq1;z:1;$sd.x*7wrwiwiq6>bbbx&*9yyaiD",
"Byiqyy71Z2euu>>$+#>294@s:9ayw0>2qyiyaaiu-..ssss..h@dd#Oqyy&k:iiiiy7yaipq@ssdMs..h.MX ..@2yyw7:&jlx>:::>$shiaaaaiqq6<&hMl:uywqiqA",
"ny7q7uqt4A=<B=#:>7uX5,qaiiy2#s@ss#@qiiiiyqhOOsshMsh@sqwyuy$vk%.ssfh>uwiawxh.oM.h..XX x*ww9*$@kMhllkz%:waue:qByyayq>fkM@*6uq7q69B",
"n9uwwww454pp>x>pypppur9>9yaayq22<qqairrw5.dsss....Os.sh0wq9:&yayyayay7wixdsd..k.s.XX  Mh$>yaay$hh>q622w3=&aaaaaiyq72>>jl*qwwyq2n",
"-wyw7q24qqpq#@papaawwqwi>#yaw>7weiwaww0**s.sssd..MOs.oM. @&:>waaaaaayqws..ss.ff.sXXXXX...@yaapy72iy62#.swwayai>$&7e2*>2q=-qqyi7-",
"bqywqq7=iyi>**ppapyw77wi#+ypq#O#>2qa003@*sosOsd.Ms+Os..XXO@:qwaaaaaaywZfoosssffssXXXX...s*ywyapw7ww*>@..#$aaai>h&rwq*qri&=qqyi2n",
"=>ywwqyqe9i>>2ppaaiq7r<y>yaai@OsO#yyq727$sXssssooO#Of.od2yiwyiwaaaaay7wwfo.dss.s.X Xofsswaw7waaq*22*wq+o.Owiiw$@&wuwqpnqeuwqyw--",
"n=29q0qiiy=hb7aaaii7rwyaaaai#o...oOww7wwyy..sdsdoO$Oswyyaaw>>hoXoXh7iwwrwwOssssskoXXf.Oaaiqqr2#fof..#2*sdohsb2eq7ryn>:yaii3722=n",
">2yuq0wiyaay>O::qyyaaaaai8&aydsXoo>ii*qiiay:$Os%iq>77yaw7sofXXXXXXXXXg4wwaa>sddddO2q#$>yiq$qrr7Oo.sOOg.O>ryaau96>>>paaaiiw2wqw2>",
"7wp7w33&uywaywaaaaaaaa9ixaaayOsXog>rrw7O>yw>wrraari77y2foffsXoMXXXXXXXgfjwy6#$OO*rwr7+sshq27iiw+fos%#%*.4:yaaaaaaaaaiywi=27q6yq2",
"uyy9q32i26>ayryaaaaaawtfayaaqssooo%2rwq2@>2%7wraa70rwiof.fffoMMoXMXXXgoofs2$#*Os:w2iqO.o>727iir:+fO>7772fx2aaaaaaaaaiua@w7q767uq",
"uuy9qq2=qyyaawwaaaaaaa>9hrai>+dgffOqrr0O7aa:#$>yayyiaa>ffssdfoMoXXXXXfgoh9y:%>Os#wiaaa9#sq27riw:Od#wyyi.x>aaaaaaaaayyayy@2q767uq",
"quuq77qyiaaaq$OsO#qyaaaayr5i2+ssffOq52qyyaa2fXfs$qiaaaa$+ddOsooMXXXXXoOqiaa%ssdXX@$yaaaaaw$qiiwsfO:i9=%7yaaaiq:%:67yaaaaw2>77tyq",
"qwuq>3qryaaiy26ii<+>yaaaaiusq+ssf.O7@2waaaa:.fdgXhwyaaiq%XssdooMXooXXf#wiywsXgfssfOqaaaaiy2*ii>o.$ra%87wiaii2%<2y6$yaaaiq22>tyqq",
"wquqq72rryiiwiiyaaaaaaq%6aai2#Osfos:>#Os$yawOs+:qaaaaw$fsssssfXXXo.oofffO*>+%$$**7aaaai7#rwriy$oo>yaayt$s$qwwywwaaaayaiwq72tttuq",
"7wuqq3qi7qiiwriyaaaaa71Oiaaw$sssko.OOdO+XO:$sd+&9aaa9OdsdssOssoXXMsfggffgoss+$2ww>aaiiq@*wrwiwOgf7aaaai2dfO::$>2yaaaar7$72279wr2",
"9wyqq2qerwyyyyaaaaaaaa:2iir*OsdO.Xssf+:$fO$+Os%#:aaiy$ossOOOOsgXokffggkfoO$*$qyaiwarwir22qiyiwsfsqyaaar4sfO+O+#@wyyaya2q72299iq7",
"7qiuq>9wq9yyaiwwiaaaaaaqssq*ssOOOfssO%$9yywq>fssOriwar2sXssOsskooogggoX:yyiw7iairraqwq7wq&iirw+dswiaaF=s*q$fosOO#*qaiyuwq*299rq9",
"&=,wq7wwwqi$*d-0nBh9&7q2>>OXofssssdffqaiaa>OofsfkXXg%>7$#+OoOfMooXof>aaaaw&.Xfssddd:7>q7way>2hfOsn&9:2aawwsXXd@*Os.*7iiqqq77i=-=",
"eyyiqwwiw4iw3##O@OOO#:d..O#O%OO@$*>>>aaiqO#OsosfoXogXMoos%7%O>qqyaaaaaaw&ofMossOOOO:>>>wiaaaiy:%O9aaaaaqls$OdO>3#Os#wr7wrwrqwyy9",
"yiyiwww2rwyew*O.XX.++*OsoXO*2>7rrr9$#27qrq$+Oo.foXXXXgfssX+%$2yiaaaiiq$XXofo.O+++#+:>>7wwrw2iiay7aaaa9:$72:#dO>q>s.@7riwqqqiiyiw",
"yaaayiw#wiy00*O XXdO@>#$.f#>72wrw2#O#$>$iw>#+o.foXMXXoMssXO$>$2q29>7rq@goofosO+++%$$722w2rq>wiaaqaaaa2,s>*:#O+:7>sM@>7q2*wyaiiyu",
"yaayaaiw55wq3#.X.O$2qrB4#uyiwiww2$OO$wayq5w*OoXffXogooogs%>wq@O%#s$wyaaygokoss+&+#>%7q>wiyaryiaaqaaaaaa%s&$+++#>*d.h#*x&yaaayiiu",
"O$>qaaiyie5O>@XXs+2i%,yaaaa2#Onq>soosqaaaiw@%so.fMogXs7yaiq$OXssssXs>aaia2.f.sO&#$:$$ww2wai>Os6i78>9waaw$O%X%%;#O..M.#>yaaaaq>#s",
"O>uyayriq0x>xOX.ss$qi<6aaaaaw:%OsdXd+waair,7$OoosgMgMXh2yaiq$sXXXgXOwaaiifoofs+&$$>*0>wrwayw7$7>$yyaaaa>O%g%&#:OsXX.hM@7iiaaaw*@",
"uaaaai5ZM55*#.od+##*qiasuiaaayq2:#O#>:>9xyi7$OoosMgogXoof%>q72:Odkf#iiwffogX.OO#;$>2r0r%iwwaaaaaaayaaiO@s####$:OoXo.hllsl=yaaay9",
"9iyyy5Zh$-2$O.X.OO%$$wia:qiaaay$#OsOOO0.iiw>#Ogo.XkffogMog#2qq7#skf%qwksgggXosO#$*>70wri%>$wiaaaaarya$&dO+O#+$$OOs.shMMshl:aiyi9",
"qyyyu8Dn.x=@OMX.f..s%9i@tyyaaai>OOsO+%#&fq>#OsoooXosfMgXfs:2776+sXd$aaykgffXosO+%>2qwrrs>*2wyaaaayrya>sssdOO%#OsOs.M.MsslN1yyiy9",
"@@-q9ttt9&ssO.XokXooss%yaaaay2@f.XX.s#wyy:sffgXgXgXssfsqy%++OdddddX+yaaawffoXfO#$:2q-2:qiiw27yiw6yaai>2OXXoO%Of...o..fkc,1<22*@h",
"..X.dzSutJtq:XX.Xosod$iaai9,Ciww7$OsfoswaaaO.XXXossXOqiiqosssOsssOOsgsqai$+%$h+&**qryaaiw&hfBaiaaaaBsfsO%7w*#fof.X.%$zv&xmd....s",
"s..XXMs.xGtaaw>O#O.d+sss%iaaaiiiyw>+fXfsOwa&f$aaaaa++2$soddsOOOsssssskoofO##wyawyaw7ya>ss*2yyiyaaaay$:O.o2iwi:ffs*qi1zls.sMXX.ds",
"dddhXX.Xs&eyaq>>>$+OOX.o>wyayairww2$+ss#.s#sf9aaaaa+sf.XMfsss+sOssssfggffosO2iaaaarra2so2riyawyaaaaq;$sf.s2>2+sd+yyy>kdO.M.X.dss",
".ssdXX .f<uay27qwq2$#ofo@2wiaiiqq>>:$+s%ss#f.aaaaaay9+OooffMoMoggffsgMofff+%2iyaaaiya2OO7riyawaaaaa6##o..#r9:O++$ypawz.f..X.dds.",
"..ss.X #qaaaq@##&$*$#OfXo.*2792wyaw$+O..O>#fOyaiiiyaaaaa*XoXXMooXMofgoo@%w2%$q27waiyaaay$&iaiyaaaay$#Oof>aaq#ssOO7uairu2OXX ..M.",
"os...s*aaaaa#...oXXXofOOsogXO$>yaaagff>yy2OgoO>*%gs:aaaaaq&MXMggMXXXX>iaaaw.XgXgs#7wiaaaaw$>Byaaai2fsg@aaayOoooXXX#>qiaay#s.X.Mo",
"kooXXoX$yaaaa*ssssdsOO@s.dsss$7yaaay2r*$qq$7qaaaawwaaaaiAMMMXXXoooXogXo%waaO.%>waaaaaaaq&%aaaaaaay7$%Oh*iaa*#O#*2qaaaiawO XXXX.f",
"f.ooooXXs2yaaw#+*$sOsfXoffsO$:9waaaaiaii>O+qyaaaaawiai4fgXXXXggoXoooMMXgX$>Ofs2aaaaawOfOyaaiiiaaaaw2#*wi9qi2q*wriyaayw>.XXdXoo..",
"f....oXos>yaay2#7>O#OXffO$qiaaayaaaaaaii$O*:qaaaaa2wiq@ggXXoofffggooXMgfX+%Osf%yaaaa7Ossiaaiiiaaaaw2#7ii*qiya7>7iaaayy&foXodd...",
"...XXX..yyyaaaw>72O::sssO5iaaaaaaaaaai<iiaaw7iaaai$2wya2go.ffsddddfgMooo$yw#Oss@qiaayq7$>9aiaaaaaq$OOqByiiiaaw*qwyaaiiiwfoXXo...",
"..fXd>yaauaw2sXXXXo.sO2iay>4Baiiaaa8yqiwiaa7#OO+sodf*aaaaaOfssssddsfX*qiaarOofds.f$2>*7ww$&&Vaai2%Of.Oyiwrwi2soXXXzwwwwaay&oo.o.",
"$>1uaaaaw@..XXXXXXXoo.o$iaay>#sO9yaaiyrriy&w>%%#+ofXXohraaa:d.Xdsff7aaai7soookOOsoO#s.oOwq$*uiq$sssd*aaiww=2#.MM..dOss2yaaayt2>$",
"aaa9yw2X....  XXooXgMXg.hO>>:2wyaaaaairrbiirq:::#ofXXogX.q9#OOs:7:+wiy:dXXXXXXoOsofsssOg@sswaaaaq7#O2y9yxqw7$.MMX.s@OOOs.qayuaay",
"aau11&.o..... XXXkogoogsX&O+sOwiaaaaair*rryiw:::+XXooggoXOO>72*$q:O>7$oXXXXgdoX.OfXoks+$Xsowaaayaaaa72wOw277$fX.XdO#@Os.X@49taaa",
"ii9,1:&MMM... XXXoofogfo%**7Os7aaaaaaiir%rrwq$$$OXXXXogos$7wwq>#2:s7yy:.oXXdss.odsXoXfs..oOaaaaaaaaaaayq@*27%fXoXdO@@Osfj9t88wii",
"sOslN9w*&k.MM.XXXXggfoo$aawwsof%%6yiaiwwrr5r>%##sXXXXXs$wq*#OsXXfoo#yiaaa&oOOsd.fsX...o.fs$aay9:2qyaaaaaw>$7$.XMXdsOOs5qqatFhOOs",
"s.ohN9w*>jssfMXXXXXgoosyaaywfsxaa1$yyirwwrws$#%OsoooofO#*$sX.XfsffXf:qyaaq.OOsssosXf..Xsf.$ywqtaa1$9aaaaw>2@:sXo..sOO=eq2wtAs...",
"#*q919=j..ssk.soXoogffO>9waa$+2aaaairiirwii>*:*+O.ofdsssdssO::+O22yayw$%oXodsO+OXO..kXXo..$aaaaaaaaaaaa75777>OoXMXsOssh.05qttq*#",
"2wyy9N...ff.fssMoXoMdO$i$%qr#$9aaaairir>raw>22>%Ofofsssss.o+>2#%raaaawsXXoofs++sXs.g.oof.osyaaaaaaaaaw2Orr07>@oXX .Oss..s59uayq2",
"2qyy92md.s.fkM..oXXoO:>iw*wwOO>aaaai7rw7rirqq7>#OkoddOOOO.%w2q#$raaaaa<XXggk.OOsXffosofss.Oyaiaaaaaaiy>>wrw7>OXooX.ss.OdsAquayw2",
"#z-<aa7w$ko..X.kXXos$4$wyai7OdO2ryai77w2r:irq7:+soossOOfosyaw:O+:>iaaaaw$ffXfOO.ogfoss.s>qryaai&%O@Oiaaa>>w7>Oos.X.s.sO7qyaa9Zz@",
"dss.#qqyaq2%XXXoodoOqiiyaa%osdxAV1*irwwrraiw>+%s.oosXgdssO$&gfddgfogs>iiaai>.f..fffXs$9yaw$f9&C%Oss.siaaarwr:soOsXfh9wwiwwqzddsd",
"sOO.oX.xqqiaaay>yaaaaryiqh&$$#2iaaari22qiiwiaaaiqqq$##Of.ffogfssMfffffoswaaaaiq2ss+#iiy>$hw7yaa$#Off*i2:ywqwya*Xsyaayr72-.X.sOOs",
"OssOooXs.x,qaaaaaaaiiirqi7*>$#>wyayrr370wrrwaaaawaa2+sXfsfgggfssgfsfdsdsX2yaaiia>%$:w7@@rrq22yi$%Ods#ii9%rrwaaq>*iaaae0ss.M.ssOs",
"ss.MooXk.l&wyayaaiarriw*i7ww2##7aaawqq7r2rraaaariaa2$OdffgogffffMffsssOsX*yaaiiaw#%2y>$srr2>:7r7#O%OOwi2OwriaaaaiiyypqnsMXM.hdss",
"Ods.o.oo;qyiaaiaiwiw7qrr>Sair>$yaaaq27*rirqaaiq:waarr2#dgoggffsfofff.sOsOyaaaywiw**waaa:>9$*:+qr:+>7O>x#>i7waaiyyaaaayu9.XM...ss",
"Od..Mxqyaayw>@d.$2riq7qaaii%iq>yaaaqwwqrirwa%.XXofO$q772:>fgffgkMgfoX..o*yii2sXofof#yaaaa>Oo$+wi>:wif.%wai0iy$ssd#qyaaaaa>.Ms.ss",
"s..MkM@qyaayq$h$yrrr70wair4ai7>yaaa77q7iiiya$XXXs$2yyw>:+fgfMoooMgoXXo.X.:iyi*O%%O#9aaaaq=d#:2yirwaaifs*yawryyq7yyyaaaay-hM.sdsO",
"O.s....X.7iyq2>yarqr7wiiNiwa7::yaaa7772xiyaa*$+$waaaa9XssdsfgggMMMkXXofssd>yai7iiqqwai@>k$f@wayaiaaaaq#Xsqiyyaaaapaaaw-M.M..sssO",
"sshMs....s>3:#@2aawyii7Oiiry>%#aaaiq772r:2r7q7::iaayi:ssOOsdsfgMMgkoMoMfssf$ww:ww>::2#so&ff:yaaayaiaaiOsoOyyyaiyuiw:*@ddds..ssss",
"...khs.h.&03*@@Oiaaaaa6qsiia7*2aaaqqwq7>qya7w7:$yaayaaOssOsssgooggfoMooX.of#7:#7:OO%$#fssoOwyaaaairiyi%fX:aayaaaaaiw=j.dsss....s",
"dXo.fk@@A00#s   .@9aaaaaiw29rwraaiww-wwwaaiOs.oos:wraaa#sfOOsfgoogfo.f:y2ffsOd.so..sOO#s.ffGaaaaai7wB6fs>aaaiw@O@x=#@jMjssskfoXd",
"fh>uaywq0xMssssssosz%%2aiiaa78yyar72qrrqawhsfofgfsdXg<w2:#sXXsXXXds>aiaa>XsOOsoXogX.Xos#%%wqqiyayrqwiay>2*:sOsXXo..OsdMj2qyyqbof",
"Naaaai#@d.fssdOss..#$OO&wiaaaaaaawrirwiqews.fOOsdssfggXof+$2:yaaaaaaaai#fsssssXXXXXofsOss:iaiwriaqir7y2Os@$#OOXosdhsss@ds>aaaauV",
"Nyaay#....s.M.s..o.O#+*2:qyaaaaaarrr7yq%i7oo@*>%sOOdggXoXs$yyaaaaaaaaysXfsssdfXXXXoff.O%.f>aiwraiqiw2i2Oq2*#ssXohs.ds@...s$yaatC",
"<9aaq$s.M.s..XXXoXosO%>qqyaaaaaaaa7rqi9*w#Xo>w7#O+OsfMXXX$yaaaaaaaaaayOofsssOfXMXXfffofsfO2ayiyariiiwi22yw2#OsXXMd.dsdh.sO*9ya8<",
"O@789w2@.ss. XXXXoofsss#aaaaaw2wyayq7aa2f.os7rq$+&#Odoo2aaaaaiiqwwaaaaw:.ssssoXoXoffffd.O7yaayiii2wiiwaa7$2#ssoXXMddsh.O*uw->2OO",
"fsdh#>23>O.X..XXookoofO9aai2+f$wia9yyaaw#so.nrq$%#+sO<iaaaairqgggo+yaaiw$fXssfooMX.fXXO2wq>q7#iir2*>2waaai$OdsgXX.ds..*wwq>hsXff",
"2>67333#..MoX.XXXXXXXXdo:ii7>#s>waaaaaw$.o>7wrq$$##Osgg<iaaa7waq$qyaaai*.ssssfoXMXffXX..$qqiaaaiwqwyiqa2$s#OdsgXXXXX.h.d:w2>22>2",
"yy72-O.dddsMXMXd.oggXXX.fs>$#ss2iaaaa2ssOOrirrq::#+OsgMXoqai7qaa>iaayi#XfffsssXXgXoMXXXf.oO>yaaywiiiww9f+OOssOgXXXXX.dsdMdO&2qyy",
"ttt9-s.Osds.XX.sdOsddXofos**$+.O2waay$&.@*iriwq>:#+Osfggf>yi7yaa7waaai@XgMXgffXooXXoffoX.od%yaaawyiwqr9oskoossfX XosssssdMs=>8tu",
"99t99>s.ssMdX.dOdsO++ffof2aw$#ffO$aaaww#&4irrw72>%#Osfffyaiiriaawriaaaa:XXoo.oogXXofsssXXO$:waaaywyiiqaOo.oofsXXXXdMdddsd@>>6669",
"oXsx23*@OssoossOOOOz+sfO$wy>osdXds-&>7aaayrq>w72:%#OsriiaaiirbMooof:iaaaa>ffsoooXXXgXdsO$*$ss<apaq2>2yay#O.XggXoXoXod..#*:3*xs.o",
"XXo..Xdd#2upayyq69uaay#s.ffi:$#OO+2w>.hwaawq7yiqq7qriiiiwhoXMXXfMgfMXM-wii7ss%:#ffd+$:%s.fo+$yaaa9w7w6&O>qq>:+sdO>ww>&*#@.X.XXXo",
".XXXXXsd.Oqaaaapaaaaa7XXdO7i7$#+O#>qw72fuyr7wawwrr7yaiiooXXMMXogffsfXMXooO#O#way272:#sXXhsO+Oyaaayqryi#gsO#%$$$$>yayy>ss.MXXXXXo",
"oXXXXM.ss.$yaayaaaaaaOfOOO:iq+#s+*wrrrqi%9iiywwyrrraayoXoXXXXXgffssdooXgodgs$qyiwwq>#fXsoo.O+yaaaaaaai+OoXsd+O#$waaay*s..MXXXXXo",
"XXXXXX...s>aaaaaaaaaa#X..O$yy#++*2wrr7:f9iryaqiiw7aaaaqfXoXMXMMfssssMogo.fO$2qii9*&#+sX.Ooos+iayyaaaay@foO$O&%*wyaaaa9O.M.XXXXXX",
"XXXXX..#qwwqyw7wywyaa*$#s.faa2%*2qqq-.fqaiyaiq27wiyaaaaay=XXXXMMfsOOfo@2ay92>$$sssO#*:$+..sO%yaaaaaaFsod%wqOOsfs#*qyyyq>@M.XXXXo",
"..oX..d-9iaq$##2qwwia922#o%saw$$:>2>..syayaiiw2>*$2yaaaai7fMXXXX.sssofraaai#O%hXg.sO$:$#Oofg:iaaayiwfhfO2awO.oXXos+*qq2*@ sXX...",
"..oXo...@5uaaaayqqwray$fXO:aay222*r7q*O%7iaaq77raaaaaaq@oXggMMMXMssgoXoMqiaryaaayw>>2>O..#$*7aaaaa>$#*@.Oyaq>wq*7wyyq>hdsd.XXXMs",
".ooo.dssss4uaaay7777i9zXsO>aai7272rwi2>>@2yayyiyaaaaawfffogfMMMo.fggMooXo&7qaaaaaa>72#so72wwwaaaaa>#$2*#s$7q7ii*222>@M.sOss.MXos",
"sXoo.dsOf@-Juuayw7qqwiOfO%*iar7227iyaii>%9aaaaiaaiaaaysffogMMXooffgMoMooX&qaaaaaya>qw:s%iyaayaaaaiw2*r72>2yaiiy>>*#xhhdsdOsM.Xds",
"OXXo.ss$9uwq7wqyiww7rai$fhwiiiir27iiiF9$:aaaaaii7waaaai%sogoMXXMfMoXXXoOyyraaaiiw2##>7ia:$aayaaaaiiq>S%Oaaaaa7*#O.hhz*,&soX.oXoO",
"s.o.%yaaaw=..o.xA<-rryiiii2O5snbxls,:yaawi2#ds+soXXo&qiw2aa7fgXffXXf2yaaaqs%.osOdXdXoOiaaaa>2=1CC<&=sqyaaaw%Oodd.dss.zwaaaq%o..s",
"u>>6yaaw@ds...X$wiwrii&O&qww2*$#*2qyaaarsd#Os+#oXXXoooMfOiaaaaw*%2iaaaw>@osXXXs+OoXofs.$yaaaaaaaaaayyaiq>xi7#sXX...X X.#yaaa9>6y",
"ytqyq2+sssdsdsd#wiwiiaaisXs+#ww2qwwyaq=@OO#OOssXOsdfoX.ssf2aaaaq$:69>OXoofsfXXfOOsXXMfs$&:yaaaaaaaaww7@@iiiw$so.sdds  ..s#quyqti",
"6tqiq*sossO+++s#wiiwaiaiofXs$iw2>:$>i2@oss+OskXdsssMXoossX#aaaw>;$#OOfd.ffdsfoosOsoXoXoOsO9iaaaaaaaw>#h.rriiq$sOO+O+ss...O9uyq6q",
"<89yiiq@Ox>###+OqyyiiiV<ssss*r7$$>$Oya*sosOOsX.dOsfMXoXfs$2aaw$+%sO%%$#f.fOOsoXfss.osfsoO2yiaaaawqww>>:%=eiii7OO#$**#xss@yyyau8<",
"bhh=1iayay2s#&##2ayi7667r:sfoos&$joX%ww:%f.XofdssokXo-wwyiq:sXdsssoos$72$dsssfXXfsoXssoO$qw$#$8w>hoO#waaayu&iw2+#$**O#qywaut4sjm",
"nb>tiaaue0x*>++O>yyaa>x$wqssf.ddXs+ss::Ooo.X.OsfoXXoof=*ww2#sXXXooXosO2>sddsfooMogXXXsfos$2$>q6Osss+$wiiq9=aiw2#####@Mj&7ayyu>nn",
",uaaiy#@jGe70##+2aaiaa2o9+#dgfs$$$9$s.o.sgfsOOfXXfooogoMfffos%%O##%OffffddssgoXkMXXofXoOsos*2aay2yy>#sf&kwywww#$#+O@@Mjs.2yyaatB",
"1yaiiq*.50eqr##+yaaaiayas<+Ofos$#+:#X.oOkfffsfXoosfXXfofgdXXO&:qr7:OfdfkssssoMXfMXossds.s.o$>yaiwaay$ffdO+#%27$$+x#*#k&j.*yyaauB",
"1aaaaii2.Feww$#+waiaawas8qyw%+%:>$$>OooXsXXXooogsdsoXgMX.Oss%:7ww7:++>%.fsfffooff.dOO@#oXXO7riaiiaaaa9sfss++#;$#***2>hk.*yiiaayC",
"j#7qiiiy9-x5r$#OqaaaB=6aaaai$ss.fss%OfO+fXgdXXgosOOoXfqaw2#sssfffsf%$aaw*.fgfXofssO#h$qiy>iw>#=$$qiiaaiOXdg%%+#>00qwxhk9auurq7@j",
"7qrb>qiiyyaq*hk.@9>>yaiiii8;Byaq:6>sX..$>#%%sdgs%&>iyaiai@ffsdsffssffxiiay>#Osfss&eiw77ia:>@b7aaaii<e6>%O+%#Oh@$72:7yqyayrqn<wq7",
"yyuiyq5rqiaay2sd#iaaaaiqiraayaaw#>2$Oooffs#>2waa7iiqaaiwo.ffsffff.sgooMo>q$#waaaawqrrw2w2wiiwwaaaiyyiaJ<s##waywapaaaaqq2eryii9ii",
"aiuaaywy22q2w1sOO9qyair2qiaaaaaq*$2>OoofoXO#>yaiqiiqiinfXossfokffffoooMooOss>aaaaqrrw>>%riryiiaayyyaaaais.s>iaiaaaaa2x=Oiyiai9yi",
"iyuaiw97qqu>7:%#%$:aaiir0yaaiyir7:::OXohX.#*7aaa7rrwiirfoXkfgffffffoXoMoo#ssOwaaiqyiw2**rw7wiiiiyaaaaaaqOfs>yawyaaaw#:&=yuiaa6yi",
"wqqai4wwwyp7*@sssO#ayayrweaaaaiw>#%#sf.sO7q229iir22wwqwi7XffssdsfffoXofwya$ss@qiywwwwyr72>>7irriaaaaaH<XdO#9yw##2qq*29yy25iai7wy",
"w77fywyqyaa$...of$o:aairyw#:Byr2>2>o.o@w7q*$+ssOOsri777rarOfsssfokfoorr7ya2doXXfO@>>>>wiw>*2<wqriaag9%>OOO:>#s#@$2ss@qyaui2792ww",
"73qiyieqwaaw$%sdO>yaaaii6,ayyaiqwwq:O..s@*>aaaarww7wii7r-Xo.ssfoXX.XodOqiai:OO9aiwww:#>>>$>>r02wrriaaihoosyaaa7>qyuqyaiw6<ayy77w",
"wwwyaaireqrq&&%O:yaaai2raaa:qiw>2>:O.Xsso.@aairqwriiw2qsoXXMsooXoXoXos++d77:%Oqai7rw#O$>>>>*wq2qq7wyay:soX2aaaayaaaewq**yyaaywqw",
"w7wwyiii57w>ks%#$yaaiw;Orrw+$w2+#OOsXXMsX.Oaaarwwriiq>>sfgookXXooXXXod+#s>>*::*aawwy#O*2>>**wwqw727yay#s.o2aaayiauJei7=fqyiwwwww",
"q7:20eN95ua2hhO##>iaiyeOh5i$O$#sMsfoXMsoO#>aairq7wyyyw9wsooooXXofooX.s#@iayrwwwway7y2#******rrwrq2riiwhoX2aiiaa7wrreyy>k&<02**7w",
"032*5Z9ttpwh.hsss=n@*wwq2$&sOssXXoo.M..#q2#*:xsOsO*22wiwwiZXXgoff.oos72wray*d..XX.-22>wiq2>*-rrwr7w<$.sdOaair99@&>=@$3*=>&jb@22q",
"-n--:4t>ZBsx##$2wyyyihx%rwa7so...ooOOO@Os.X.XX.ssO+O+**w3raaayuqwqyyqywqrbo.ssd.MXsO#>*>7wywwwwiyyyyw>O..<,ayaawypq22Mdj->=#bbn-",
"32222S-#ke**2*%%:2qyaaag9$79#sssss$7#sMMsXXXXX.dO##OO##O#waaywaayaaywq7OsM.sddhsMXdO#*$#2wqwqw7qyypyy>.shqayiayyyyy72#jshlb=>22q",
"qqq74S4d32@9ye>$:>:7yaaaO<*>2*#Os$yy*M..M..M...s#**#O##OO4ipyyaaiaaqq>#OMo.Md..MXXdsO@#@O227wqq7yapuy$$o*7aaiayytpy7>#:*.hb-2qqq",
"qwwq76#@h#>uuew2$2::2wif69aai7>x#7aay&h...hs..hsx**#s@@O=qyiryaaiayyiwqj.f.XMssdXM.ssO@O&>qwiwr7iaaaau#@f2aaayaayayq$-2.x$>2qqwq",
"b=>27u2@hhhuaew7#>,:=kh9yaai2@...#wiawqy2hsOs.dO#*=@s@>qqwpuey7qqww7wiwyuAh.Mssd.M.sdO0>eqrwwre0eewuppaq@h=iaaaayayw=.M#*262>-bj",
"552qqw2*#j4zaq72*##$kh@qaia7O...O+9iyawyiqhs..ss@x#Os>>7qyuJe2s.s=729rwyieM.dOsd..Mss*wwwiw>eS450579uuiy2j9&iiaaaaaefss*>7q92>-4",
"eyyay7#h@9uay73-#Oh#&=jxxqii722yaaiqia2#M....sOO@@@ss*#swiJHuayaayqquqwq.kM.sOsdM.X.s.s@*7wwqqutJttpuq$sh*wyaiayyauq<&h@.*yauywe",
"uyyaw#4huuapyw##@Ok&xx=2OO-q7wyaaaqwwihd.fo.s.sd@OOsO**ss-50taiyayiw9wboX...dsOs.MXX.ossO>q9iiutJttt2Oso#>7yiiiiyuuteFF9sh>yapau",
"quyay9$2iuuayw-zjxjxNz&2$#4t9upaaywwqi*.f.oX..sdssO.O>$ss4423iiaaaauqw>o....s.sd.sXXoo.s@7riyiyptpuq7x..#7qwiwiuq7qqe9995*uaaape",
"0iiyaay6&&iuaw*x**xxxxfOuau9q-2wywqwqqay=k.oo..s.ss.s*&riuuq2747wyyyqyyq=ffhsfsd.MXoXos8wwyiyq95q5q3qw:@ss7wiq9D9qqweA4<9yaaaiy5",
"bN,e2wyyuq2*9hx@@j.kxx6yai>sh.ds@***7wyaaaw@off...sh92wryi*s.X..sddO5qiaa8B@..sff.o.=yaayiw=shjjhhX.O>>qyy7>5-bb<7,226uyaaw29zNx",
"tayaut4=7qyaaq#OO**1116>$sxxs.dO>>>*$#O7iaaaaytuyiwqqqqr>X..o.MdOsds sM2yu8aaw2>2uyaaiar*.M.sOx@hs.OO@h.*yaay4A6tyaaaayq<<uyaai9",
"9yaayyye2<9yay>*7qy11bhh$##@sXsh$>>2*#Oss7qyyaayaawwruqOXX.oo.ssOhsds.Moo=Aaaawiiaaai<*.X..ssshh...OO@jMs$upp8qyaayayq=-yaaiaiye",
"6qwqiiiy&=2qyw$$29u96bh.$OOs..sh@*>>$+Ods22qyaaaaayue9<sXo.o..f.hssfM..oo@niauuuw9aaqBhoo.MsMs.Xo.ssshj..#q6t8yapaaai7*syaaiyw98",
"=*>qiiS7<uyyy2#O$2qay<jssOOOdssjh%**#OOOwywwaaiiyaaiiwyqXoss...oM.Mo...o*66yuiqq*>aay26&.MM..X.oX..s.hxfhyatt8uaauiiqq>h&eiiw>==",
"zxA4sB2quJu2=sfffks*9<118&OXsOOxhhh&O*rwuiqBBxs.dh>ruwuai<sOsssoXXooo.@yay7<>@..dd%96<28nsf.s.dd.dksfjn89aa9=xb7e94278D89&5f4<bx"
};
