/* XPM */
static char *_1d6bf4e510248648c8829f94af13719igrnNVI4uBdcaszo[] = {
/* columns rows colors chars-per-pixel */
"64 64 68 1 ",
"  c #35AEB3",
". c #34B1B5",
"X c #33B5B9",
"o c #33BABD",
"O c #38B9BE",
"+ c #2FBEC1",
"@ c #33BEC1",
"# c #2FC2C4",
"$ c #2FC6C9",
"% c #2FCBCD",
"& c #32C2C5",
"* c #38C1C6",
"= c #33C6C9",
"- c #33CACD",
"; c #38C9CD",
": c #2FCFD1",
"> c #33CED1",
", c #38CED2",
"< c #2ED3D5",
"1 c #2DD8D7",
"2 c #2ED6D8",
"3 c #2DDBDC",
"4 c #33D3D5",
"5 c #38D3D7",
"6 c #33D6D9",
"7 c #39D6D9",
"8 c #32DBDC",
"9 c #39DADE",
"0 c #2BE0DF",
"q c #2CDFE0",
"w c #33DEE1",
"e c #3ADEE1",
"r c #1FFFFF",
"t c #27E5E4",
"y c #2CE3E4",
"u c #26E9E7",
"i c #2CE9E7",
"p c #2DE7E8",
"a c #26ECEB",
"s c #2CECEB",
"d c #33E3E5",
"f c #3AE3E5",
"g c #32E9E7",
"h c #34E7E8",
"j c #3CE6EA",
"k c #33ECEC",
"l c #3BEAED",
"z c #27F2EE",
"x c #2BF1EE",
"c c #31F0EF",
"v c #26EFF0",
"b c #2CEFF0",
"n c #33EFF0",
"m c #3BEEF1",
"M c #26F6F4",
"N c #2BF4F3",
"B c #26F9F6",
"V c #29F9F6",
"C c #2BF7F8",
"Z c #23FEFD",
"A c #2AFBFA",
"S c #32F3F3",
"D c #3AF0F2",
"F c #32F7F9",
"G c #30FAFA",
"H c #40E6EA",
"J c #41EAED",
"K c #41EDF1",
/* pixels */
"BSFZsNZZZVms<3MB$X&4hrVlZZZMck5--46gNi&s@2+=N4X6sZydZZZVbZkyNkpN",
"l56MZZBVMs3yVs4>i4ykBVknhMZZcMB=-BB41641My4yV04pCNNAs3NZ3>>68sv8",
"k$2ZBBNyZp qnS:-y6SNZhkshBZBhxM23MA94jkNNBAZ6NkqC6NB3oMB2o=8yZZ8",
"ZNNNNllh3gyyA22:osNZZklfcZZZSlsSNCMNMZABknsZysi3F2=swsAy3ZB$*Bso",
"ZywkkHkg6AfCw&ZB3xMZZFk9kZZ4sBZZZZZq4NZh>qAb#4AC;d#*McZ6yrZy3Ss<",
"ZksskjBy,SeN#>ZBsBZBZBk-3ZMX2ZZZZMjdyhZg8ybhodANX24#BBM*pZZv3md3",
"BNx-NBZ32ZBx@@VNBZZsZVj;sZM=6cNZZSly2AxdZp-V4ZZk4y6OiZk;aZZ<:hg&",
"kAV>4yy2sN68b3fsZZNwClf=sckllDkBZyiBk6-ynp-ysBclZMkk44ss2t3-ikky",
"yrZBZ8OsZNoyBNNBZx8hlJjfjllll>=BZ8s4oiZVkNfi$6KgZBNZqoBr3 >BZxkZ",
"-2<&6==>swSxNZZZZgllllSlShNZZtarMkdyi><>qqyZkjlMZBNiskqS-w$+:32=",
"2@@2X&5@9sxZZZZZBllllSMkZBZZZAdh<>4Br3XV#sZZkHkBZZkwsl2*@d@$A43s",
"&<2=@>ZsNZZBgsZZSJlllkzBZZZMiS624sy3N-&ywBZVjlkZZBVCnhskwZgfZsNZ",
"ZVBefsZN&6ShbSlmjJkMll4#ZZc,4ZZ@4hfy=ffswyMfMllMZZbhSsk8BZZAB46l",
"3BANBZZNelJlblhigSFSSBi>xl>=-Aa32dsww>9S4ixNkSMBZZMpZZa2ZZZMjdyN",
"384BZZZZmh-dMZ44xrClZZseks-Zt>=ZZ$-iB6Mx=iBZlMZZywZri-FFZZZZN>ds",
"Z<wkZZZZZ0.3ZZ&@NZNkZZyguayZN-@ZZo#ZBCByX4ZZlMZZ@&skwsllZZZBZBB3",
"C84BZZZZZB6sZZ==SZxsZZNMyqykSw&BN-oMxMBio5AZlMZk9fllkdkVBBSkyVs>",
"ZsyVBBSxshFkBZNdlBBZrxfB@o-Nss>kn35hBZZZ>HcZlVBJlhllbsZZbml:-Nko",
"cZBhkq3sZy9k8irklm33ZhxZpsN-6ZvqkskBZBCk9ljkFkllhV6&BBMZpq8pBBB2",
"4Vs44@o2rsfC4irsjn84i-aBsBq&5BBdC6%ZBkJlxgjkyfkCZZy4Sepr3 pZpMBh",
"<$-yo#$&9wlSMZZZVMZm@-1=-=djhxBZZnsZZBcAlMSJhBZZBsn8kmqs4o&&q:3Z",
"4@$so@@@-wHSBZZZZZy7o-4XZsSkVZVBklCZZZBZlBMgBZZBlD3@NZqC6o+#AfsB",
"2ww23>&2BqfbhBBNBAwys44tsbBBBskhlhhMZMiFmklg3BBkl9ts8q6Syo*=wnNZ",
"ZhhZZ2XirNXqk2kjZfkCVcB0NNNllkdkc&&BZMllBhlg@sNf+#BNg>Ski@-hsq>N",
"6NNd-3t<Cq&-NBjC3=32ysCdhllhnpsrZMMZZBklklxZBBp@--yVy0NaynNhxxsB",
"+sk42Zr3<VZ69Awg&ssyZAf6lBZ4brZBVBZs2BMcsdZZVSn%NV4NNBS%nflzZ-1B",
"3aMyBrZ3-Bss>N2ByABFZZ2OxMZ7SnbkksB3oxZS62ZMfhhdlj4-ZZ3=SfsBZo*M",
"3BZ<snNs=szi$bkyMBVxxMsMiskAn@ymmSVqoiAl;tZN=yM>hS4oNZddMBZrz*5S",
"=VV*bkhN68Zkfkkw=y8-k$3r-=*s-%qjkcNBsimh&MNs=<<=Ng-29MsBZZZVhhml",
"NdyVVAZs2d6s82;6ZaNksMZZACS@4ZB&>xlZZlK7@SfySkVB;=xgxZ3&cklllNxl",
"ZysZkkAn022s8s323tySsi3s0y132Ma<wsNZZSlxyw4dSq232pC4BrwflSllkkll",
"BNCBFAB6i2SZkBlS4X-F4o*&=X3rB8<:25CBZBxZ68+-8X-MAZBnZZFJkzzMBcFC",
"xVBZy4--N8ZBkBlS2X&d-@&$&@4Zpyq->5CBZBBb&=@@>sZZZZSlZZBsBBZZZSSS",
"ZNVf3>o3ZbAfopC864yZCsskqMs>3ks>=BABNSVyBt2iqbklkx5oNZa&ZZZBkhkl",
"pNZss4=dy6mfoth-64sZ3sZgBNZVBmn$+BBZmy6BVAASdkCFBZw-xBy6BZZBjSVh",
"=NB-%sHcZkhhBZBd=C2+x&3Z2X4Zsy:BB$-wC:2y8fCBZBBZBBsfNxlkMZZZlSkx",
"3fjtsllBZcx8ZZnnsD1@CfsryyyrZo=VV&#y>CZg2pVkyklpxB>*brdwzZZZkM6B",
"-eNyhjMZskk6ZZfbsh8-ShsZiahBB4skVsspppqyZpdC&8SqZZ#Xbrp6xZZZck>Z",
"oNM=kkZZlJfNZZBNhSkkNbNCNZBNAGAZA3gNM=.2Bg&sXqsoBs@-2N5esBZBK9yZ",
"6Aa=xZZNSchx3NZskBBxZZb3BNCkkws44>hA-@4pFs3:83%6-@pA%o2NNZZcK9x8",
"BBZCZZBjBSci 3ZZZZ0osS94hlkAbNN-=23Zw4sVxNZBjxZZ--BZ3oVZSBBll,pb",
"<pkBZZNlkcZZsZZZZMlfHlcFVZBCisi2ZjSZNy=332-hMs6>q32pqs3sfZBfBM-=",
"BnNZZBgJjMZZBBZZZlJDkZZZVVCAr46aZlCZlSBZXq-=AyX0rZ62sZ3O4BNkA>+q",
"VMBrZskljCZBlSZZkkxsZBsw3&<Ba2FZSjsZsN9y-<&4A8#-bi2s2N3k-ZCS3-2Z",
"B44ZkllhkcllNhkxsBswxlBMMZbo-s6Nl9@ZMhfgZBsMZVBC*-VSy=sB3qFkw8fS",
"Z86kkNNkScJhfiZZZZN36>MBs32@6siBCe3ZBle4Zy>dy364@+yM<@ys6sBMkw3q",
"BgfmBZZZll6xZZZxiC6+B@dS<@@sBZZZZxZZNcs-A46A=hc-hd>w2dykBZG3=Zio",
"SFAnZZZZxwXyZMxsyS3XCypStpkhsAMZZMZ6-CxkMkNcxCSA26ZFh4s6AZlyySk4",
"F96crZZZZs@yj6ZB3AqXpysZtaV-:NNZZZZ<-Zxs7pZBZZZV>6SNyMs&ZZhkykg<",
"A4=kBZZZZZbk5@Cboy3&8@yZ,NByimSZZZZBxZrZosZZNVBsnss8sZ4VZZcs&BNo",
"B=-llFCM-skhZa9ps3iNq2MBpVZZchkSV:<rZVFk6klleyZZg6pNs>28CZBf6ZZs",
"B%-lllsM#pfqZA>2BBNMh2vMBrZBhSMli@&sxlHjSnkb,ss6o-CS8sy8cZCf6BBs",
"ZZMClcZZAkjep2Bv&@#$o2CsAZZZZljNMjjZZAkBNAZBh6o-ZM2qkZNHNZMhb6%-",
"ZBBZjcZC9dSyy2ZZ3Xo@,MBZZZZZZllckKcZZZZZZZC>@XX>ZZ39BrCJMZMsA22y",
"ZddkgZZNxy3qnd3q=*2dVZVqVSSCNMkkc96ZZZZCBs--w3y233hhZBNfxZBgky3-",
"M=hJkZsyZB3SnZ=@gks:BM,,jllHlMjkx&&ZBBsNZBsMSNBB@-s@wlx7bZBxyBZg",
"Z3fkZxndaBBsi:8bBZZzBkjVJhlljjsrZBxNk>=4Zi@%238@<sBigllfZZBBfBCf",
"BfFMMfS36Brh-kw<ZZVlZVhwdZlMClMZZZlVZ4qyCy<q 3G3isZBlAlxZZZMB6yZ",
"BqgBlkZiopVbZZ>6SZNlZZ6.3ZkZkgZZBS5BZypeedaN@6lN5@ZkSBfxZZZZZo-Z",
"Bh4yNZAN6C5hnfmkxZBBZZi@xMlSjMrBCyosZ4@8fg2B#fnBy8AlkkjMZZZZx=9F",
"Vey=&MhCASflfmbMZZZZZrBgxjllsVBxkp6$3-@dZq@s$kBZZZklllkgZZZxlmDl",
"k6BsdxNh29As@wrBZAMhBZqollllz@yf>BZ2-ZZBZBfdxNBZZxfMlJf6lllJJ5=x",
"bpCbCFBb2pVMdksgk6whNZN3xlcMZpp6%Bs<633wqylSNBZZZMksNCcxlckcByiZ",
"ZNnBy2y68hHb:djjb=@fkBZZZNZZZA,+&NqMZs6C6sBZZZBZZrFJZZCjkBZZZZAM"
};
