/* XPM */
static char *result[] = {
/* columns rows colors chars-per-pixel */
"64 64 72 1 ",
"  c #AD463D",
". c #AE4C3C",
"X c #B3463E",
"o c #B44C3E",
"O c #B94E3F",
"+ c #AA5536",
"@ c #AD5239",
"# c #B5523D",
"$ c #B9523F",
"% c #BE3746",
"& c #B53E42",
"* c #BD3D46",
"= c #BE3A48",
"- c #C13D47",
"; c #C53749",
": c #CC374D",
"> c #C43C49",
", c #CC3B4C",
"< c #D1364F",
"1 c #D33C4E",
"2 c #D93D4F",
"3 c #D53650",
"4 c #DC3652",
"5 c #D63B51",
"6 c #DC3B52",
"7 c #DF3F58",
"8 c #E43655",
"9 c #EA3757",
"0 c #E33B55",
"q c #E93A57",
"w c #E63759",
"e c #EC3659",
"r c #E53B59",
"t c #EC3A5B",
"y c #F4365B",
"u c #FA365E",
"i c #F3395D",
"p c #FA385E",
"a c #EF3B60",
"s c #F53661",
"d c #FD3663",
"f c #F43A61",
"g c #FC3A64",
"h c #FF376A",
"j c #FF3B6A",
"k c #FF3871",
"l c #B64541",
"z c #BC4444",
"x c #B64A40",
"c c #BB4C42",
"v c #BB5140",
"b c #C24446",
"n c #C94547",
"m c #C24A45",
"M c #C84C47",
"N c #C54348",
"B c #CC434A",
"V c #C64A48",
"C c #CC4A4A",
"Z c #D3434D",
"A c #D9434F",
"S c #D2494D",
"D c #C05142",
"F c #D54251",
"G c #DC4353",
"H c #DD4955",
"J c #E24256",
"K c #E04956",
"L c #E4425A",
"P c #EB415C",
"I c #F2415C",
"U c #F44062",
/* pixels */
"19i0tf0zBtrZBzlN-<;Ztyt0rgdtCzzccv#C6ttGBitZccc$$lNnrg5tfsy66y91",
"iddt0ug<efrB*zOz38,lGjjdjdyB###xlco#zijddjdC#oxcOOzznyrgjgd6Pggi",
"qtii9it,B20itBxz440ggLZBAArytnccNN6frZZNnHLdtGnzzz26riGBryttftfq",
"tggrtig660P6554ggyu6x#oOlo,,Z5eggjgFlloO###cZdg6565z1yyqw42BGgdf",
"fgy00ya;-6q6,tttiug0Mzzcbz>2GnrgfigJmccccv$cFy9Bn5>nBsggy6nn4idi",
"0ypt0t56sPttgg012tgd0zzxczMqu1FLJtidZxccc#cZwtrnBG4yrfggy6BBtiyJ",
"quy0ii1jjgyy3g94ygp2zxzOc*O@z3yjjjuZ@lccc#$@Ndjfyy5c6jj1ry8t2yu0",
"2yypg66fjyiffgZ zeyttcXob-BJfy0HHPupJblcv#cFdyu6BB4bz0t6qyriuy92",
"9iytgfttgjjgPgGx#tyriq6tiwitCc##@#vSit*z5y>Zt9u2.z-N6fjgffggieyw",
"dieq9gdgjjj6tj5xO4u0wr6gdggVocvvvv$#Z0:z0dfN2edtl2uGBgjgjjgt0e9y",
"iiqigj9G60jjgi1lO2wijfoxAdjazzxv$$#6j0lxl0jjiwdZlsr0gjt4wtjj98fy",
"iu9iudugjjg5gg,z$b>*Bwz;fjtzzzzvvcvczN>8rjjrqudmShjtz08tgjgi9wfi",
"tu9yiuugjjjer0lzloz504Nzrgtnzzz###vVJ6tgpgpe8uix2gg6,bl%0fdyrwi9",
"ryyppi11B,4Abzz*,Brjf1ccvvBS>NNGKHfgrCcNzB8edgtN,fffrNO5*nudyyyq",
"gju9iu8l#l:zo19uy33tt:xc$###x;4ysddn+#z**<6euiggjUf55:*9Zlee9ddd",
"0ijuir1#z0rtff0t1o6gu8l$c$OGr9BlzBsjGvx;,<wygi6fffja>N*,bcN0gjiG",
"rfdtJ2NO*4tfjjt4Nl6fiy>OcvvCLe4m$zfIC#z;<49yigtafgj6--:,xvmZtjg6",
"ghfFB1X$zzwtrjjt*z;1Jrz#vcv#o4y5lnhZ#vv*,qpr4tjjggazl*;-xxccmths",
"zBGtr5n#v#ztgft0BxzqfFovvcNaGzzzxzGjJzM;<yiftZigff5-CG-xOcnNZZBz",
"O##OFgd25zbztgjgp<cl56Bjkr-VOl*zzzOcx>ijgusn6idgkg,lNy6x5dZxO$#x",
"cz$cLg0401zcMtfig6*zNlGjfgtHCvv$vcvVZ,0ifdgGwggjUf-cGf-lGgiFbOcc",
"cc#6jjF xxzzO %tjPZ09,GaGtjjLm$$v$mGhJoZtfjj7afjj6l6hrlnZtggBO$$",
"v##+Zjj33>z#z6agjjjd14hjjgdB+#vc$$$+N,ltjj0lgjgjje3itgtyhjuB+##c",
"OcMLfgtZCbN5igfggjfija6rGnigKmxlOcMKs6lzGtrrtrfg0zBgddrBHtpgLm#O",
"tagPBc####$Mrr50gjgiii2;l#vSf6lNB6gPCv$zxllN21jf2zrgy9b$@l-Gtdft",
"jr5c#vv#$vv#-,Nijjjytd93z$$#z8e552yz##xvcvzm.Jjjjjgt69N$c-%oCtfj",
"xzrencv#vv#ZgucFtiguuq,>c##N8BmcomyjPzzxzv#vxrga9fUjr3N#vz>tstzx",
"rirzxzmcvvl6wg:fjgpidt33zvzzxl5>ijybvv-*xxvv@0jjjjdqye1#$zzc6if0",
"2yiJnO##@#,tiyz6jgyyiuq;x#zzctt;tjjPcvll$vobZtja7rgtyy>##oznqdi6",
"llSJi0HFHLgdfNz0Pfiygut0GBzxzBmlccV0jfHZzz0tt0t6& rjypqznLiyLCxl",
"zz#@ctjhjgdiqt<wjgtqppjjjg-lc$ccvxloBjjh43y>99yi>l0t6djfgjgB@$zz",
"lvmAfdtGtg9ufuewjgyyugLCFre2Vccvvcco0jrAB1jjtN;y3rn5fufJ0gjgFvcz",
"zccStg45upygigrrji9qudBc6fiBNcvDDv$$bii660gaFztjgjPNrgfifggLCczz",
"xOo@m9,Fgggrtd4tjiyqtue3jjgzlzc$vc#cxN9q0,3xlZjUggglbhgjji,oooll",
"cZL4JBzxzLrfgfidgyiug5OONFPt-zcvvCHfZxzx#xzNztdggyiF6a6mmBzM5rS$",
"tjinOxcz#l%1ijjjgputycN>lx#$l6fjjjhFlzz##vczbfuguug42;l#lxzxbsjP",
"5a0Ncc$#$vz6gjffgiptZ#e4=-cCLgjUfjjZczcv$cczBfdgipgfi5z$vxzm50r1",
"B100zvv#$v#NgiN4jgjtlSiq;*mPjjiGCijizzz$vv#m9ifgytig0;lv#vcBt6BB",
"di,olc$xccv#z4>bfkfl-uuw:*l+Zgujyjgm@xvv$$c#O,jjuduFoxzv#vxlx,ed",
"F66NNcvzz-blFiNxNttttpie:NZLggiHHrjfHcv###zcb>rjutitbvcv#cczB51Z",
"@#vcNfgffjfzct4*zw0JgippiydICDv#OOvS0N,tZ1>ccz6jgii,15,z6g6-m$##",
"v#$cxtjjjjr.ltw&<uu6qdpuujgC#$vDzz$#Oz9he4zccx8jjjgzOz=4gjizO$#$",
"#v#migr9ydi1cFg:wecZjgprrsjjJvvvzzcrjw3Bx*3;lxrjggBxe0lDBru4z$$$",
"vv#l>ajgyismltj88y91rgiujjgBvvDvcvvDGfjUgq4xF0fjj51>5iytr92oxc$c",
"v#lN6tigiyuGnidt0fg0rjggfUjFcv##v#vv6gjji40Liggjgt04tgg4>NNBNc#x",
"Fnag0M#Mtiptt921Argg0,zbvvSJtgHZnKff6Vvzx#zPggaaartfUtl#vxc0gPCF",
"adez zz-ddgUOzwy8yfNl=zczc#@xaki34B#xzvczv#l,gjkjgwNid5lzzc@zddy",
"16gt0,;>igi05lZ5,lt5zzvczvc60tGbll;6czxvzvzx5sra618tiff;:<;6tgrZ",
"Gag0Pq2*eggG0z@zN,zNcvzcvvvBJMXcNczBczvvc$coN>rtG1,Pttu<>>bB0dfG",
"tjg5Zuw;gjgP60z-:<cvcvxvl##vOl;ei;NVxlvv$ozm$Ziggj6oz,4,,<NcFdjP",
"0tfgti6ztftfjf6GB,cbbzvc-GHgtzzmmzFgLBzvN6wutr0tfig4x>-19e0Pgit0",
"dguiyd9l4gjiigjj44cvc;fjudgL#xccxc#vF;fjguy6iupjggjfl4ggjji4ugiu",
"ufiyit1z*0guigji3,zcB3rgtypqCccccvvC0zBfiyyr9yupgUfLl1fwit<rigfu",
"ytppgfN#BPjditgy95xn00L06iiuJOzcvvMtg6xGr93y83yijUtbztr1r6tdtfyi",
"iugpiiB%wjg0gter1>vz.rjdudy1@$$$$#ozFw1ddu><2<yyeuhN#fkgggu1igyp",
"q29tf0l>5ty266*z##vb,7t22tyiJMDvc$B4dtAAGq4882ypii0OFggt9rq12229",
"0606G,1,riiGrrzlO,Nzm##o*%;<yjffgiy9ZcoO#l15yyypdd8o5gggie1bBB2r",
"yyt>,8d434gU4a9N,h2O$cvz1,-*2ddjjgyZ#$ccvx*%1ypygjtNGjgjgu4Bb6ey",
"29u2z0ge1,NZjg,cBghy0bOz;>NwufiG09udtmzl$cNtyiyttijfB0gUjfbz4i22",
"ugt>rjy2->,1ZyqfgidBc$xz-z,>GPgggiiADvzzcvcz4yifaf0z3ygggf05>igg",
"ygitrgs,Bnn1rttfgyuLV##xlo;6r9tiguuLmooo###Btdgiay0b1yytet9ttgjt",
"Pffe9st->BFrt1xx334ygaGFGG9utM$xczZiiLJ,FHtgqZznbx,Zrgt6tfiyiff0",
"ydgy4yh3ts6z**cz18; FdjjjduZ+$$czlO@bfjddkyb##xz#z-ONgtgjjd1fjgi",
"B0ttti2zBrrF,zlNN,;6ittJGfufSzzvvv$Ct9rZntr6McxvvzmBPf6tfytF0t01"
};
