/* XPM */
static char *_f1c559076074f6af1bf54ace9072201a33x1ChkU4jTGMHp[] = {
/* columns rows colors chars-per-pixel */
"64 64 170 2 ",
"   c #8549BC",
".  c #884BBF",
"X  c #975FB7",
"o  c #9A5DB7",
"O  c #965DB9",
"+  c #9C5EB8",
"@  c #A059B7",
"#  c #AE57BB",
"$  c #A45CBA",
"%  c #AB5CBD",
"&  c #B457BD",
"*  c #BA56BF",
"=  c #B25ABF",
"-  c #B858BF",
";  c #8F65BD",
":  c #8F6CBF",
">  c #9660B7",
",  c #9960B7",
"<  c #9563B9",
"1  c #9A62BB",
"2  c #926ABD",
"3  c #9A68BF",
"4  c #A463BF",
"5  c #AA61BF",
"6  c #8D47C3",
"7  c #8B4DC4",
"8  c #8E4FC8",
"9  c #8C50C7",
"0  c #8E51CA",
"q  c #8E5DCD",
"w  c #955EC2",
"e  c #9B5CC4",
"r  c #9153CD",
"t  c #905CCF",
"y  c #8D5BD1",
"u  c #9356D1",
"i  c #925AD1",
"p  c #AB5FC0",
"a  c #A05FCB",
"s  c #B557C0",
"d  c #BD57C1",
"f  c #B45CC1",
"g  c #BC5AC4",
"h  c #8F68C5",
"j  c #8660CC",
"k  c #8E63CD",
"l  c #8D6BCD",
"z  c #9764C3",
"x  c #9C64C2",
"c  c #926EC1",
"v  c #9C6BC4",
"b  c #9262CE",
"n  c #946CCA",
"m  c #9C6ACA",
"M  c #8F74C5",
"N  c #8D72CE",
"B  c #8F7CCC",
"V  c #9173C4",
"C  c #9A72C7",
"Z  c #9176C9",
"A  c #9B73CC",
"S  c #907BCC",
"D  c #8E64D1",
"F  c #8D6ED0",
"G  c #8E6CD1",
"H  c #9064D1",
"J  c #906BD4",
"K  c #8D71D1",
"L  c #8D74D1",
"P  c #8D75D2",
"I  c #8D73D2",
"U  c #8D79D3",
"Y  c #8D79D4",
"T  c #8D78D4",
"R  c #8E79D5",
"E  c #8E7AD5",
"W  c #8D7CD6",
"Q  c #8E7DD6",
"!  c #8E7ED7",
"~  c #8E7BD5",
"^  c #8E7FD8",
"/  c #8F7ED9",
"(  c #9073D5",
")  c #907FD0",
"_  c #917ED2",
"`  c #9076D9",
"'  c #907EDA",
"]  c #A266C2",
"[  c #AC63C2",
"{  c #A36BC5",
"}  c #AC69C5",
"|  c #A56DCB",
" . c #B061C1",
".. c #A370CD",
"X. c #C157C4",
"o. c #C158C5",
"O. c #C059C5",
"+. c #C159C6",
"@. c #C05AC6",
"#. c #C15AC7",
"$. c #C05AC6",
"%. c #8F80CF",
"&. c #9080CF",
"*. c #8F80D4",
"=. c #8F85D4",
"-. c #8E83D4",
";. c #8F89D7",
":. c #8D80D8",
">. c #8F81D8",
",. c #8E83DA",
"<. c #8F85DC",
"1. c #8F87DC",
"2. c #8F84DA",
"3. c #8F8AD9",
"4. c #8D89DC",
"5. c #8F88DC",
"6. c #8F8CDC",
"7. c #8F8DDD",
"8. c #8F8ADC",
"9. c #9080D0",
"0. c #9181D1",
"q. c #9083D2",
"w. c #9185D4",
"e. c #9186D4",
"r. c #9187D6",
"t. c #9087D6",
"y. c #9183D3",
"u. c #9189D7",
"i. c #9188D7",
"p. c #9087DC",
"a. c #9087DD",
"s. c #9085DB",
"d. c #9189D8",
"f. c #918AD8",
"g. c #918BDA",
"h. c #928DDB",
"j. c #9089DE",
"k. c #908BDE",
"l. c #918CDC",
"z. c #918DDD",
"x. c #928DDC",
"c. c #918EDD",
"v. c #908CDE",
"b. c #918FDF",
"n. c #928FDE",
"m. c #918CDC",
"M. c #9290DE",
"N. c #9290DF",
"B. c #9291DF",
"V. c #9290DF",
"C. c #908CE0",
"Z. c #918CE0",
"A. c #908DE0",
"S. c #908EE0",
"D. c #918EE1",
"F. c #908FE1",
"G. c #918FE1",
"H. c #918EE0",
"J. c #9291E1",
"K. c #9292E1",
"L. c #9190E2",
"P. c #9191E2",
"I. c #9192E3",
"U. c #9292E2",
"Y. c #9293E2",
"T. c #9292E3",
"R. c #9293E3",
"E. c #9294E3",
"W. c #9294E4",
"Q. c #9292E2",
/* pixels */
"k ~ F.h.M < $ f g 1 , f $ V B K.~ b u 7 . 0 t k 2.u.> % g #.#.% < q.F.l i u . . r u k P b.b.S < + $ + g % =.S - s %._ = g % % % ",
"k P F.N.M < + = g % 1 f $ 2 B K.~ q u 7   r t l b.e.< % g g g 1 2 b.^ b u 8   8 u D l j.b.S < + % + + g % 6.u.% = B _ $ $ $ + + ",
"D F j.K.S < , = g 5 + f % < Z K.! k u 8   0 i l F.S < % o.@.s X S K.K i r . 7 r q l 1.N.V < + % f $ % g 4 7.7.% & V S , X < X < ",
"q l ,.E.q.2 , $ g f $ f p > M K.,.k u 0   0 t l F.S + s g g % < e.a.D i 7   0 i k *.K.B < + - g g $ = o.x 8.8.1 + 2 S < 2 2 M M ",
"k k ! K.d.h < $  .= $ f p X h M.1.k i 0   r t N K.Z + - * o.% 2 j.T y r . 7 u k ~ K.B > $ f o.g f % s - c ,.s.c 2 h Z S S u.d.d.",
"q k P b.N.M < $ g f $ g s $ 2 u.8.k i 0   0 t l K.M @ = g g + M b.F i 7 . 0 i F K.e.< + f o.* d #.f % + V ~ ~ S S e.h.K.W.W.W.W.",
"t k N 1.E.S < , = f $ - g $ < %.b.l t r   7 i l F.Z $ % o.f , e.d.k r . 9 u q 2.h.< o + g * d g g % O < S T K J.E.E.b.8.2.^ ! ~ ",
"t t l ! E.e.2 , $ g 5 f g $ < B K.K q u . 7 i l K.c + % o.s < h.~ i 0 . r q U K.V + , + g g g % , < 2 B x.( P F.*.U P N l N k k ",
"i q k ~ F.h.M > $ g % = g % , Z K.~ D u . 7 i F b.V @ $ g % c 7.D i 7 7 u l j.B > % , + g f $ o 2 Z j.K.K.P F N l k k k b D H t ",
"u t k K j.K.B < , = 5 = $.f + 2 d.,.k u 7 6 i D b.V @ $ g $ V 8.k u . 0 q ^ d.< %  .O $ s + < V q.J.F.^ F l D k D i i u u i u i ",
"r i k F *.K.e.2 , % = % g g $ < e.F.k t 9 . 0 k j.V + $ g $ B 2.H 7 . r l K.M + g g , $ + > B 7.K.s.F D q t i u u u u u u u u r ",
"u i y k T F.b.Z < $ = = g @.= , M K.l t 0   u k j.V o % g $ -.^ u 7 7 t ! e.o f g f + + 2 _ F.1.K k k i i u r 0 r 0 8 7 7 8 7 7 ",
"r u i b l 2.E.B 2 , % f g o.f + 2 h.~ q r   0 b d.S o % g + ;.` r . r l b.c + g #.p o < 6.L.~ k b i i u 0 7 7 .                 ",
"8 u i q k ~ K.d.V < $ g $.g @.$ < e.6.k u 7 7 r ' _ o f g 1 ;.G 8 7 r ^ q.X , s s $ c d.F.K k i u r 7 7           . . 7 6 .     ",
"7 r u i k F 8.K.S < 1 - @.@.o.f o Z E.l i 7 7 t ~ q.o g d < 6.k 7 9 k 8.c X + g $ ; 3.1.l q u u 7       . 7 0 0 0 r u r 0 0 0 9 ",
". 0 i i k l ~ K.h.2 , $ g g g g $ 2 d.! t r . r K =.o g * 3 *.k 6 9 T y.+ $ % % z 6.2.l i u 8 .   7 8 8 u u u u u u u i u u u u ",
"  7 u i t k N j.K.B < + - g d g = X S b.l r 7 0 H 2.1 g * 3 2.q 7 0 d.V = $ % > d.,.k i r .   7 8 u u u t t q t t q t i i i i t ",
"  . r r i t l ! K.6.M > $ g d g g $ 2 N.T i 7 7 t ,.c g * 3 2.0 7 H =.1 g = + %.,.k r 9   . 0 u u y t k k k k l k l l k D l H k ",
"    7 r i t k l 1.K.B 2 + % g g g - o S j.k 0 7 u ' Z & - 3 :.0 7 ( S # o.$ Z 6.q u . . 8 u y q k l K U ! ! ! U U ~ P N l l k k ",
"    7 r u i q l ~ K.h.Z < $ g g g g $ < b.~ r 7 7 I -.% $ 3 ,.9 7 ' v * - c 6.J r . 7 r r q h U y.j.F.K.K.E.W.E.K.F.F.a.,.~ P K ",
"    . 7 r i t k l 2.E.e.h > % g d g % o Z b.k 8 7 k *.1 + 4 ' 7 q ! 5 d + =.J r . 7 u H l 2.N.N.b.d.e.y._ q.=.e.u.M.B.E.K.F.d.~ ",
"6     . r i i t k P b.E.B < + % g g % + < u.! r 7 0 ^ c o ] ' 7 H S s s B / r . 7 t l ,.L.h.-.S S e.d.V < 2 2 c Z M e.u.b.K.W.C.",
"0     . 7 u u i k l ! E.M.M < $ = g % + @ c h.F 0 6 G B > 1 ~ 7 G C g x =.t 6 r t ' b.y.V < X S e.K.W.S o + < S %.2 h M S e.b.K.",
"0 7     7 r u i q k N 2.E.u.M > $ g g + $ @ S 1.i 7 q *.2 4 ( 8 K ] d S D 7 9 k 6.e.c > + % + &.K.F.W._ + # + S u.2 > 2 c S S b.",
"r 7 .     7 0 u i b l P 1.W.e.2 O $ g + + g o &.s.r 6 T Z $ V 0 N % { ` 7 0 T 6.Z < X $ g g $ S F.b.N.&.+ % , S u.2 o < < 2 Z %.",
"r 0 6     7 0 u i i q l ~ F.K.q.2 > % $ 1 g s < e.( 7 q U # A y h % Z q 8 ` S > $ $ o $ g o.$ Z b.b.F.S @ $ < S %.< $ , > 2 : Z ",
"u r 9       0 r u i q k F ! K.N.%.2 > $ + s g = < ;.H 6 F [ A D v ] D 7 ~ Z $ + f f $ $ g @.p 2 S W.E.V $ % + V M < $ $ + < 2 2 ",
"u r 9       7 0 u i t b k K ,.W.N.B 2 O $ g g o.s 1 -.t 0 A p D ..m q K C g - $ s s % # s f f , c d.u.2 % g $ < < , % % @ , < 2 ",
"u u r 6     7 9 r u i b k l P 8.E.h.S 2 < $ - g g s 1 q.q q } k v b l { * * @ @ o < X + + $ $ $ , M M , g g = 1 $ 1 % % $ < < < ",
"u u r 7     . 7 r u i i k k K ~ b.W.h.S 2 < $ % g g = [ B q m e w D [ s x Z S S B Z V 2 < , + $ $ < < % o.g g f = $ % f % 2 2 > ",
"u u 0 7       7 r u u i q k D P ,.F.K.u.Z 2 < + $ $ % g s m l e ] | ..B ,.8.b.F.W.b.e.S M < < + $ + , f #.$.o.o.g f % f % c V X ",
"u u r 7       7 r u u t H k l l ! 2.E.b.S V 2 < 1 $ $ g g o.f z m H k y k k N ^ j.W.K.=.M 2 > + $ % p g g g - * g @.f - # Z V X ",
"u u r 7       7 r u i i q q l K ,.F.W.b.q.M 2 > + + 1  .o.g [ z n b G D D l U ,.K.E.N.q.V 2 < o + $ g g g #.g * d o.g f $ S V o ",
"u u 0 7     . 7 r u i i q k l U 2.K.K.e.Z c > + $ 1 > s f n k a e x [ S =.7.b.K.B.u.%.M : < < $ # %  .g g f g g @.o.g f $ S V < ",
"i u 0 7     . 7 r u u i k k l ! C.K.d.B < > $ f f < > 1 ! q m w + D { * 5 1 c V M 2 : < < 2 2 + 5 g @.@.g  . .g g g g s 4 M 3 < ",
"u u 7 .     7 0 u u i q D F P 1.K.b.B 2 > $ f g f > 2 ,.0 k } k | b D A = @ + % $ $ + $ < u.e.< $ @.g o.g f f g #.g  .p + ; < < ",
"u r 7 6     . r u u i q k l 2.W.b.S 2 o $ g g g s 3 ,.q 0 A 5 j | { y G Z , , g g f % $ c K.W.M $ g * g g % = g g g % $ + O < ; ",
"u r 7 .     7 r u i q k l ~ K.K.S 2 o % g o.g f c d.D 6 P [ ..j z  .F 7 J e.< % g f % o S <.,.e.< = $.* g = f  .f % $ $ O < 2 M ",
"u 0 7     6 8 u u H k l ~ b.E.&.2 , $ f d g s > d.J 7 q S - A q n f A D 6 J 2.V @ # $ O e.~ K b.2 % @.g @.g f = = $ + o < 2 M B ",
"r 9 .   . 7 u i i i k N 1.K.e.2 , $ f f g g , q.' 0 7 I m s Z 9 I [ p ! 0 7 H d.-.z + + e.G l F.V $ g g f = % $ $ X X < 2 V B e.",
"r 8     . 0 u i q k l *.W.e.V < + f f g g $ S d.q 7 q -.5 f N 9 D { d C K 7 7 i ' b.S 2 y.K l j.c $ % $ $ $ + + X < < h M B u.N.",
"0 .     7 r i y k l U K.K.M < $ + g g g $ 2 F.G 9 6 D S - [ ! 7 D S d p -.H 7 8 i l 2.b.b.K F d.3 X X X X < < < 2 : Z B e.M.E.E.",
"7     . r i i i k P 8.W.q.2 + $ $ f g # X e.^ i 7 9 ' V d 5 ! 9 q ~ % g c ,.t 7 7 r H F 2.! ^ 8.B M V V M V V Z B q.e.F.K.W.b.8.",
"7     7 r i t b l ^ W.e.2 X $ g % g g $ M b.H r 7 t *.4 d 4 *.9 7 ,.x d # S ' t 7 . r i k F T C.W.K.b.b.b.d.b.b.K.W.W.K.j.,.! P ",
"    . r u i t l P F.b.Z < + s g f f $ < 6./ u 7 7 J -.$ g 3 *.0 6 ` Z & - 2 h.P i 9 . 7 u i q h K ~ ,.8.F.b.F.b.F.a.^ ~ ~ K l l ",
"  . 7 r u i b l 2.K.q.2 , % g g f s + S 8.k 0 . r ~ S = g 3 2.q 7 H -.% - 2 Z d.F t 0 . 7 0 u q D k k l l N K K K l F l k l k k ",
"  . 0 u r q k P K.b.V < $ f p o.g % 2 d.^ q 0 6 t 2.Z = o.1 =.y 6 q 2.c & 2 2 V b.l i r 7   7 9 u i i i t q t k k k H k D i i i ",
"  6 r i t k l 1.K.%.2 o f % + g g + M K.l r . 0 D 2.3 g o.1 *.H 7 0 ~ _ + 3 3 o Z F.F i u 9 .   6 0 u u u i i i i i i i i i i u ",
"  9 u i q k U K.7.V < $ f $ 1 g % > e.a.H r . r l j.1 f g 1 e.J 7 9 J h.2 : 3 = , B F.N k i r 7     . 7 7 r r r u u u u r u u r ",
". 0 u i k l *.W.%.< , % s , > % + M F.K i 7 7 r K d., g * + e.J 0 6 t 2.S h < o.f , S N.~ k t u r 9         7 7 7 7 7 7 7 7 7 6 ",
"7 u i t D P b.h.M < + s % < 2 $ > B 7.k i 6 7 t / e., s g $ y.T r . r F h.: 1 o.g % , B K.,.l k i u 0 9 7 .                     ",
"r u i k l ,.E.e.: O % s $ M Z o < 6.1.b u . 0 t ^ e.> f g $ ~ *.t 7 0 H d.&.+ s  .f # X Z b.j.T l k i i u r 0 0 7 7 .         . ",
"r u t k F j.b.Z < , f f + B e.> V F.~ t r   r q ,.q.< - g % Z 2.t 9 7 t I b.2 $ % s g % X c d.K.1.l k k q r u u u u r r 0 r r r ",
"u i D l P K.u.M < $ g = , u.L.< B W.l t 8 . r k a.e.2 s $.# V 7.k r   r t 1.q.X $ g g g % + 2 B K.L.! l k k k t t i u i u u i r ",
"u i k l ,.W.q.2 , % g f < b.L.M e.8.k i 7 . u b j.u.< f g % < 3.I r . 6 i K b.V + f g o.g = + 3 B 6.K.b.,.P l k k q H t t t i i ",
"u i k P j.K.S > + f g g < 7.K.M d.,.D i 6 . i D j.u.3 s g % < ;./ t 0   r b ! b.2 + f g g g = c M < B e.N.K.2.! P K l k k k k l ",
"u H k U K.h.V , $ g g * < c.K.B b.~ k u 7 7 u k d.e.< g g $ + S 1.k u . 7 i l j.q.> $ g o.g = V Z > > : B u.N.K.K.j.,.! P P K N ",
"i q l ^ K.-.2 , % f g g 4 7.N.-.E.P t r . . t k F.S + g s $ + Z F.l i 0 . r i T F.B > $ g #.% : c , $ + > 2 M -.d.N.E.E.F.7.j.j.",
"i D N 2.K.B < o % $ f o.$ e.b.&.K.l i u   7 i k j.S o s s 1 + 2 j.T t r . 7 i k *.K.V < $ o.f < < + f % + , < 2 V M q.u.h.N.N.E.",
"t k N b.b.Z < $ = + $ o.$ q.u.q.F.l t r   7 i k 8.e.< % g o $ > e.d.k u 7   r i l j.j.c > $ g + , $ %  .f % $ , , < < : V Z S &.",
"t l U F.u.V X % = < 1 g % B B e.F.l t r   8 u k 8.e.< p s < $ o Z b.l q r . 7 u i K F.d.2 O $ $ % % % g o.g f % $ + , > > < 2 2 ",
"k l s.E.e.2 X $ = 2 3 g % c Z j.8.k i r   7 i k 1.d.< $ % < $ $ 2 b.,.q i 8   8 i k P K.d.V > $ f f  .@.* g o.g  .f % $ + + + o ",
"b l a.K.&.2 , % - 2 2 s = < : N.,.k i 0   7 u k ,.8.< $ s < 1 % < S F.l q u . . r i k P K.h.V > + % g g d d * g g f g f = % $ $ ",
"k K j.b.S < , % - 2 2 = % < V N.,.l i 0   6 u q ~ F.M $ = , 1 s + V K.~ q i 7   7 u i k ! K.d.V < 1 % f g g * - g f g @.g f % = "
};
