/* XPM */
static char *_cfb2d7db4924895ebee1829dba6ccbcvbrCVwUbS1IiZ6Tt[] = {
/* columns rows colors chars-per-pixel */
"64 64 100 2 ",
"   c #010101",
".  c #080706",
"X  c #090807",
"o  c #0D0B0A",
"O  c #110E0D",
"+  c #13100F",
"@  c #151211",
"#  c #1A1615",
"$  c #1C1816",
"%  c #1E1918",
"&  c #231D1B",
"*  c #26201E",
"=  c #28221F",
"-  c #2B2422",
";  c #2F2825",
":  c #312927",
">  c #352D2A",
",  c #382F2C",
"<  c #3B322E",
"1  c #3E3431",
"2  c #413733",
"3  c #443A36",
"4  c #473C38",
"5  c #493D39",
"6  c #4E423D",
"7  c #51443F",
"8  c #534641",
"9  c #564944",
"0  c #594B46",
"q  c #5D4E49",
"w  c #5F504B",
"e  c #62524D",
"r  c #665650",
"t  c #685752",
"y  c #6B5A54",
"u  c #705E58",
"i  c #715F58",
"p  c #72615A",
"a  c #73615A",
"s  c #73615B",
"d  c #74615B",
"f  c #74625C",
"g  c #76635D",
"h  c #78655F",
"j  c #79655F",
"k  c #79665F",
"l  c #7A6660",
"z  c #7B6760",
"x  c #7B6761",
"c  c #7B6861",
"v  c #7C6962",
"b  c #7D6963",
"n  c #7D6A63",
"m  c #7F6C64",
"M  c #806C65",
"N  c #826D66",
"B  c #836E67",
"V  c #846E67",
"C  c #846F67",
"Z  c #846F68",
"A  c #856F68",
"S  c #857068",
"D  c #857069",
"F  c #867069",
"G  c #86716A",
"H  c #87716A",
"J  c #87726A",
"K  c #87726B",
"L  c #8A756D",
"P  c #8B756D",
"I  c #8C776F",
"U  c #8D776F",
"Y  c #8D7770",
"T  c #8F7971",
"R  c #927B73",
"E  c #947D75",
"W  c #957E75",
"Q  c #967E76",
"!  c #967F77",
"~  c #977F77",
"^  c #988178",
"/  c #998178",
"(  c #9A8279",
")  c #9B837A",
"_  c #9C847B",
"`  c #9D847C",
"'  c #9D857C",
"]  c #9F867D",
"[  c #9F867E",
"{  c #A0877E",
"}  c #A0877F",
"|  c #A1887F",
" . c #A2887F",
".. c #A28980",
"X. c #A38980",
"o. c #A38A81",
"O. c #A48A81",
"+. c #A48B82",
"@. c #A58B82",
"#. c #A68C83",
/* pixels */
"                                                                                                                                ",
"  & , , , , , , , , , , + o , < > < , , , , , , , , o @ < < > , , , , , , , < : o # > : : : > ; : : > : , -   & , , , , , , %   ",
"  8 D Z Z Z Z Z B C Z D : - ( [ | [ [ | [ [ | [ [ ^ * , D B D B B B Z Z B D Z j @ 6 ..[ { ..[ ..[ ..[ ..{ I O 9 Z Z Z Z Z Z 6   ",
"  7 D B B B B B B B B C : - [ | | | | | [ | | | | ( & > B B B B B B B B B B C j @ 6 ......{ ..[ ..{ ..[ @.K o 9 Z C C C C Z 6   ",
"  7 D B B B B B B B B B : - [ { | | | | | | | | | ( & > B B B B B B B B B B D j @ 6 ..{ [ ..{ ..[ ..{ ....L O 9 D B B B B D 6   ",
"  7 D B B B B B B B B S : - [ | | ..| | | | | | | ( & > B B B B B B B B B B B j @ 8 ......[ ......{ ....@.L O 9 D B B B B Z 6   ",
"  8 D Z C Z Z Z S S D S : - [ [ | ....| | @.| ..| ( * , C C C D B D B D D D D j @ 6 ..@.........{ ..@.@.@.I O 0 D C C C Z Z 6   ",
"  3 d s s s s s s s d d - * D L L L L L L L L L I C $ ; d s s s s s s s s f f r O 3 T L L K L I L L L L Y h o 5 d d s d d f 3   ",
"  . o o O O o o o O O o . . o O + O + O o o o o o o     o o o o o o o o o o o o   . O o o @ o O + + + O O O   o O o O o O O o   ",
"  1 r r r q @ & 7 7 6 8 6 8 7 7 7 7 6 + # 9 9 9 9 9 9 9 9 9 9 9 6 X & 5 4 4 4 5 3 4 4 5 4 5 1 . 3 y t t t t t e r r r r e t <   ",
"  e @.@...[ * , B D B Z D B Z Z C D B & ; | @.........@.......@.( @ < D D D D D D D D D D D s O y @.@.@.@...@.@.@.@...@.@.@.e   ",
"  q ......_ * , D B Z Z B B Z Z B B m & ; [ | | ....| | | ..| | E @ < D B B B B B B B B B S u o y #.| | | | | | { | | | | @.e   ",
"  w @.{ [ ( & , B B Z Z D B B B B B m & : [ | | | | | | | | | @.T @ < D C C B Z B B B B B B u o y ..| | | | | | | | | { | ..e   ",
"  w @.| | [ * < Z B Z Z B B B B B B B & ; | | | | | | | { | | | E @ < Z C C B B B B B B B B s o y #.| | { { | | | | | { | @.e   ",
"  e @.@.@.{ * , Z Z Z Z Z Z S Z C D B & : | | | @...@...@...@.@.E @ 1 D D D D D D D D D D D s o y @.@.....@.@.@.@.@.@.@.@.@.r   ",
"  3 f s u u $ * w q q q w q q q q q q @ & u s s s s s s s d d u e O - q q q q q w q q q q w 8 X 6 s d d s s s s d u s s s f 3   ",
"  . o . o o . . . o o . . . . o o o o . . o o o X o X . o X o o o . . X X . X .   . o o o . o . o o o o o o X . X X o X o o .   ",
"  1 y y y y t y y y y y & & m M M m M M B m M M B c % = t y y t y t t y y y y r O 3 N m Z N N m C m m C B y o 3 y t t t t t <   ",
"  7 D Z Z Z Z Z Z Z Z Z : - ................@.@...{ - : D Z Z Z Z Z Z Z Z A Z l @ 8 @...O...........@.@.@.L O 0 D D D Z Z D 6   ",
"  7 D C B C B Z V V Z Z : - [ ..................| _ = , Z B C C N Z Z Z Z Z Z f @ 8 ............| | | | | L O 9 D C C B C Z 6   ",
"  8 Z C Z B B B V V V Z : - _ ............_ ....| [ * : B B B C Z N Z N Z Z Z l @ 8 @.@.........| | | | | L O 9 S B S B C Z 6   ",
"  8 Z C B B B B V Z M Z : - _ ....[ ........_ ..| _ - > B B B C N Z N Z Z Z Z l @ 8 o......._ ..| | | ....L O 9 C B B D C Z 6   ",
"  7 D Z Z Z B Z Z A Z Z > - _ @.....@.....@.....@.| = , D D Z D Z Z Z Z A Z A x @ 8 @.o.o.o.O.@...@.+...#.L @ 9 D D D D D D 6   ",
"  = 3 3 3 3 3 3 3 3 3 3 @ @ 8 8 8 8 8 8 8 8 8 8 8 6 + # 2 3 2 2 3 3 3 3 3 3 3 1 . - 9 8 9 8 8 9 9 9 9 9 9 6 . - 3 3 3 3 3 3 =   ",
"  o # # # #   o @ @ @ @ @ @ @ @ @ + @   . # # # # # # % # $ # # @ . o $ $ $ $ $ $ # # # # # @   O % $ $ $ $ @ @ # @ @ @ @ @ O   ",
"  9 Q Q Q T & : l l l l l l l l l l f & , Q Q Q Q E E E Q ( E ^ Y $ 3 ~ ~ E E E E R E Q Q Q V O 8 c l l z z l l c c c j k c 5   ",
"  w @...@.( - , Z Z B Z Z Z Z Z B B Z & < ........{ ....| | | | ~ & 5 @...............O.....Y @ 8 H B B Z C C C C C C C C Z 8   ",
"  w ..@...( & , Z B B B Z M Z B B B B & < { ..[ ....[ ..| | | | ~ & 8 ......................P + 0 Z B B B B M B C B B B C C 7   ",
"  w @...{ [ & , Z B Z B Z B M Z B B B & > ..[ ....{ ..{ ..{ | | ~ $ 6 o...` ......{ .._ ....Y O 9 Z Z Z B B B B B B C B C Z 8   ",
"  w ....{ ( & , Z B B Z B B B M B B B & < [ ..[ { ..{ ..{ ..| | ~ & 6 ......` ....{ { ......Y @ 9 Z C Z B B B B B B B B C Z 7   ",
"  w ..{ ..( & < B B m Z m B B B B B l & 1 ..[ [ [ [ [ [ [ [ [ { ~ $ 4 ........` @.` _ ......I O 8 M B B B B M Z B m B B B C 7   ",
"  $ , : , : o o - - - - - - - - - - - . O : > > > : , : : > : > : . # > ; ; > ; > > : > : : - . $ - - - - - - - & - & - = - @   ",
"  # : ; - : : : : : : : o . & & & & & * & & & & * & . o - ; ; ; - : = ; - : - * . o & & & & & & & & & & & $   & > : > : > > $   ",
"  0 | [ [ [ [ | [ [ [ [ , & m B C m B m B B B B m j $ > _ _ _ | ......_ ..~ ..Y O 2 Z C B B B B B B B B Z t o y ..{ { .._ ..w   ",
"  0 @.| | | | | [ | ..[ , & m B C C B B B B B B m m $ > [ [ | | ..............Y O 2 Z C B B B B C C B M Z y o y { { ..{ { @.e   ",
"  q | | | | | | | | { [ , & m B B B B B B B B B S c # < [ [ [ | _ ...._ _ ....Y @ 2 Z Z B B B B C B B B C t o y @. .{ ..{ @.w   ",
"  0 ..| | | | | | | | | > & m B B B B B C C B B S c $ < [ | | [ ..{ ..........Y O 2 Z Z B B B Z M C Z Z Z y o y @.[ ..[ ..@.e   ",
"  q ..| | | | | | | | | < & B B C C B S C C S C S c # > [ | | @.{ } ....O.....R @ 2 D Z Z Z Z Z Z Z Z C A y O y @.....{ { @.q   ",
"  7 E R R R L E Q R Q R : % s h j j j d j j s h h s # ; E E T E R R T R T T T M O , f f f f f f f l f h h w . e ( ^ ( Q Q ( 0   ",
"  o + + + @ + + + # + + .   @ @ @ @ @ @ + + + + + +   X @ # $ $ $ # + + + + + +   . O O O O O o O O O O O O   O # # # $ # $ o   ",
"  : 8 8 8 6 @ # 3 2 2 2 3 3 3 3 3 3 2 O # 8 8 8 8 7 8 7 8 8 8 8 5 . $ 2 2 2 2 2 3 2 2 2 2 2 , . < 0 8 9 9 9 9 9 9 8 9 9 8 9 :   ",
"  e #...@...* , D D D D D B D D C S B & , ..+...@.| +.+.+.+.+.+.E # < Z Z Z Z Z Z Z D D D D u o y #.......+.............#.#.e   ",
"  e ..[ ..( & , B B B B B B B B B B B & , ..| | | | | | | | | @.R @ < Z B B B B B B Z Z B Z u o y ..| | ....| | ..| | | ..#.e   ",
"  e ....{ [ & , B B B B B B B B B B m & , [ | | | | | | | | | | ~ + 1 Z B B B C B B B Z B B u o y ..| | | | | | ....| | [ #.e   ",
"  e ......[ & , B B B B B B B D B B m & , [ ..| | | | | | ..| ..R @ < Z Z Z C C B B B B B Z y o y ......[ ..[ ......| | ..#.e   ",
"  e #.....[ & , D D C S S S S D D D B & , [ ..| | @.@.@.| @.| #.( @ 1 D Z Z Z Z Z Z Z Z D Z u o y @.....+.....+.........| @.e   ",
"  6 D Z D c % - r e r r e w w w e w w # * s l h h s s j m c c c y + - r r r r r e e e q e q 8 . 8 B Z m B c c Z m m B m m B 6   ",
"  X o o o o .   . . . X   . . . . . .   X . . . X X X X o X X X . . . . . . o . .   . . . . .   . o o o o o o o o o o o o o X   ",
"  1 s s s s s d d s d d * + q e q q q w q q q q q 9 + & f s s s s d s s f u s r O : q q q q q q 0 q q q q 5 . 5 f s s s s f 3   ",
"  q #.....@.| @.| | #.| , & B B D D D D D D D D D B $ , ..@.| @.{ ..@.@.@.@.@.Q $ 3 H Z D Z Z Z D S D Z Z y . u @...@.....@.e   ",
"  0 @.| | | | | | | | | > & c D B B B B B B Z B Z c $ , [ | | | ..{ ..{ { { ..R @ 2 Z Z Z Z B B B B Z Z Z y . y @.......{ @.w   ",
"  q @.| | | | | | | | | > & m C B B B B B B B B Z c $ : [ | | | { ..{ ..{ ..{ R @ 3 Z B C C B Z B B B Z B y . y ......[ { @.w   ",
"  0 ......| | | | | | { > & m B Z Z B B B B B Z B c # , [ [ ..| ..{ { { { { @.R # 2 D Z Z C C Z B Z Z Z Z y . y @.{ | { ..@.e   ",
"  0 @.....@.@.| @...@.@., % B D D D B D D D D D D B $ , ....@.#.@.@.@.@.@...@.Q @ 3 D Z D C Z Z Z Z K D Z y o u @.@.@.@.@.@.e   ",
"  : q 0 0 0 0 8 9 9 9 9 $ @ 3 5 5 5 5 5 3 3 3 5 3 3 o $ 9 q 0 0 0 9 9 0 0 0 0 8 o & 5 5 5 5 5 5 6 8 4 5 8 1   2 t t r r t t <   ",
"  X O O O O   . o o o o o o o o o O o     O O o O o O O o O o o o   . o . o o o o o o o o o X   . o O @ o o O @ @ O + + @ O .   ",
"  8 T T R H & - f d s s s s s s s s u % - D L L L L L L L L L L c O : u u u u u y u s u u u e . q R T L T I R L T I T I R T 9   ",
"  e ......{ & , D C Z Z D B B D B B B & - [ ..................@.Q @ 1 Z Z Z Z D B B Z Z Z D u o t @...@.........| ..{ @.{ @.e   ",
"  e @.| ..( * , D C B B B B B B B B m & : [ ..| ..{ ..{ ..{ ..{ R O < B B B Z C B B B B Z Z y o t @.| | | | | | | | | | | @.e   ",
"  e ..[ ..[ & , C B B Z B B B B B B B & ; [ ..| { ..{ ..{ ..{ ..R @ < Z B B C C B B B B C Z u o t @.| | | | | | | | | | | @.e   ",
"  w @.| | ` * , B B B B B B B B B B B & - [ [ [ ..{ ..{ [ ..{ { R O < Z B B B B B B B B C Z u o y @...| ..| | | | | | ..| @.e   ",
"  e @...{ [ * , D B C B S B B S B B m & : [ [ [ { ....[ { { [ ..R @ < Z B B B B B B C B B D y o y @.| | ..@.....@.......| @.e   ",
"  - 3 3 3 2 o @ , , , , , , , , , , , o o , , , , , , , , , , , : . O - - - - - - - - - - - &   - 5 5 3 3 3 3 3 3 3 3 3 3 3 -   ",
"            .                                                                                                                   "
};
