/* XPM */
static char *_7c91d19443a46e7b1bd7438cd6611ca7UlMNgBmBWSIDKj9[] = {
/* columns rows colors chars-per-pixel */
"64 64 108 2 ",
"   c #D62ED5",
".  c #D92ED6",
"X  c #D72FD9",
"o  c #DB2FD9",
"O  c #D630D7",
"+  c #D930D7",
"@  c #D731D8",
"#  c #DB32DB",
"$  c #D239DE",
"%  c #DF38DF",
"&  c #E12EDB",
"*  c #E132DE",
"=  c #DE35E1",
"-  c #D53AE2",
";  c #DD3BE4",
":  c #DE3DE9",
">  c #E32FE1",
",  c #E335E3",
"<  c #E935E6",
"1  c #E33BE5",
"2  c #E939E7",
"3  c #E735E9",
"4  c #EA36EA",
"5  c #E43DEA",
"6  c #EB3BEC",
"7  c #F036E7",
"8  c #F037EA",
"9  c #F13CEE",
"0  c #EC3EF2",
"q  c #F237F6",
"w  c #F33DF2",
"e  c #F63EF9",
"r  c #B446DB",
"t  c #B349DF",
"y  c #BB47E2",
"u  c #B54AE2",
"i  c #BC4AE4",
"p  c #B54EEA",
"a  c #BD4DEA",
"s  c #BB51EE",
"d  c #B653F2",
"f  c #BD54F3",
"g  c #BE56F9",
"h  c #BF58F9",
"j  c #C242DE",
"k  c #C545E6",
"l  c #CA44E6",
"z  c #C24AE6",
"x  c #C646E9",
"c  c #CD46EA",
"v  c #C44CEB",
"b  c #CB4CED",
"n  c #D047E7",
"m  c #D246EB",
"M  c #DB44EC",
"N  c #D34BED",
"B  c #DA4BED",
"V  c #C250EE",
"C  c #CC51EF",
"Z  c #D651EF",
"A  c #DA52EF",
"S  c #C54FF1",
"D  c #CD4DF2",
"F  c #DB47F1",
"G  c #D34DF4",
"H  c #DB4CF4",
"J  c #D64EFA",
"K  c #DA4EFA",
"L  c #C453F3",
"P  c #CC52F4",
"I  c #C156FA",
"U  c #CC55F9",
"Y  c #C559FE",
"T  c #D351F5",
"R  c #DB51F5",
"E  c #D454FA",
"W  c #DC52FD",
"Q  c #D359FD",
"!  c #D95AFD",
"~  c #E240E6",
"^  c #E442ED",
"/  c #EB42ED",
"(  c #E14BEF",
")  c #F141EE",
"_  c #E545F2",
"`  c #EB44F3",
"'  c #E44AF4",
"]  c #EB4BF5",
"[  c #E747FA",
"{  c #ED46FA",
"}  c #E54DFB",
"|  c #EC4CFB",
" . c #F344F4",
".. c #F944F7",
"X. c #F348F6",
"o. c #F646F9",
"O. c #FC44FC",
"+. c #F34CFC",
"@. c #FD4CFD",
"#. c #E253F6",
"$. c #E454FE",
"%. c #EB54FE",
"&. c #E458FF",
"*. c #ED58FF",
"=. c #F354FF",
"-. c #FC53FF",
";. c #F459FF",
":. c #FC5AFF",
/* pixels */
"| b H ..' P N L - o B b D H , ; %..._ ( , | 1 . { ] { _ . 1 =.= ] X.@.=.] . 2 x G T L 5 X 9 T f ` ` t ' %.W W W K $.;.;.;.%.W &.",
"R $.-.R D F P : & H P P l , * %.-.=.( # ' 5 . ] ] / ] # @ } 1 ` ] `  .%.= = H T $.i M # @  .I L ) ( t b %.W W W W W W $.=.=.+.+.",
"%.;.G N ( L ` < J T E k . 1 R %.;.] @ ] _ < { ] ; ' # + | _ : } , 6 | 5 . ] &.%.b z 5 O , _ h S e ' u i #.$.W W $.*.:.@.9 < * / ",
"%.$.' ( v | w T D G b o , x D R ] + { +.e { ] * =.=   ^ | 1 %., # 5 %.o ^ %.=.%.T F # O , B g L  .| i u z $.:.:.-.@.e , , ^ %.&.",
"=.=.=.b %.@.T x G P , , D P b B @ 5 =.@.+.] @ } ^   1 %.5 %.1 + % %.1 = %.+.=.;.R _ o O * R g V +.e R t r r N *.-.+.[ %.$.&.K 5 ",
"=.%.%.%.-.P l G U 2 , D E C n * ; #.=.=.' # ] ` o , %.2 ] ` . + _ | o ' %.w -.-.&.6 + O 1 Z f f ' O.e ] N D G J $.;.$.&.$.` , / ",
"$.+.%.%.T m B V  .6 P T Z x # * N #.$.} # 5 } 6 < | ^ 5 %.# O 1 %.1 2 *.^  .@.+.%., @ @ * ' s Y a R o.9 w o.O.@.+.%.%.o. .X.=.;.",
"` %.$.;.} ] v +...C b G D # # l D J H , = %.o. .' | % $.1 X @ { } * } | , O.w | *., @ @ @ X.z f Y f P H B B N z D %.-.+.$.&.| < ",
"| &.+.;.=.T %.@.T c } Q 5 * N P G b 1 . ' :.@.o.%.o ] [ + + 1 %.5 5 *.6 = e , %.%., O # @ 2 %.V f g g d d p u b W $.%.W &.+.` | ",
"$.o.| %.%.=.;.G b ` U ` * } U R a ; . ^ $.;.+.%., = %.1 @ # { %.* | %.= , 4 , %.%.2 O # # @ <  .H R R R R %.=.=.-.:.%.%.+.| *.] ",
") ] &.+.%.%.#.N _ a ' 6 ' f #.U M . , N W ;.%._ X | ] # # 5 %.5 2 $.{ + , @ 1 %.%.` O # # @ @ @ * < 2 w 9 6 6 O.-.#.E %.%.%.X.| ",
"` &.o.+.W %.%.| b R O.+.I ] T G # % c v $.#.` o 1 %.2 w * | %., ^ &./ + # @ # +.W =.< O # # # # # + O O + , X.$.L k ] | %.-.$.$.",
"&.`  .W =.+.;.$.R -.-.V H K U 6 . M a $.b N ,   ] } e / 5 %.] # | %.2 O # # @  .$.W -.3 O O . O O @ * ,  .#.L S N ` m G %.$.%.X.",
"^ 2 *.+. .%.=.=.%.=.D b _ f ] o 5 P T G z /   1 %.o.-.6 ] %.2 @ %.$.2 O # # O = -.&.W =.X./ 6 6 / ~ M G f L #.| G s G :.=.$.=.%.",
"< =.=.4 %.%.+.*.=.W x ` v R 6 < R f %.a N * + ] %.-.-.9 &.| # % $.%.< O # O # O , +.=.W &.$.$.J b z i L R ;.R L T | @.| G } %.%.",
"=.;., ' W ` +.W %.#.| N V +.< =.L #.T L 1 + * } #.:.+.o.&. .o * %.%.6 + # $ @ # O X < / { +.=.%.G D $.W T I P _ 8 w R v ' H $.%.",
"%.2 _ &._  .&.$.:.%.| x $.O.-.L P +.f B # X 2 b #.%.@.=.$./ X % =.W +.o # @ # @ o = = 4 ..-.:.=.$.#.v a b M * & / T G M D #.=.$.",
" .5 $.' < %.$.O.+.%.$.$.=.-.R f { J I 6 @ # ( i K $.:.$.%.9 O # +.W =.6 + @ % @ X , 6 O.O.@.+.-.*.T N : # + * G U K N P | -.E } ",
"6 $.%., X.*.X./ %.%.:.%.-.%.a c ` f R < O , m u W $.;.J %.6 @ O 6 =.W =.6 # . + X   X # , 6 | %.$.^ * . # ; P E R E G 9 | v ' R ",
"} &.5 6 ;.+.< %.$.+.=.%.=.E i ^ N s =., O 6 v a R $.$.G =.6 o @ @ o.%.W %.+.` 6 6 ^ ] | %.*.%.^ * X # 5 N v E T T M 7 ' P $ G %.",
"*.] 9 %.=., ^ $.|  .$.$.$.H N o.a P @.o # X.L a K $.c b %.o.@ # @ %  .;.W ! $.%.%.&.*.%.{ 1 + . , ^ %.H T G P c = * G W H v +.=.",
"%.o.=.&.) 1 %.$.6 +.&.W ;.#.+.] t W o.X w } g S W W x i &.-.< O # @ o 4  .+.| %.| ` 5 # # = / | %.=.;.%.W c ; + ; G G G T  .] R ",
"+.;.W =.< ] &._ < =.K =.-.K @.b u %. .= O.A g a $.%.z r D %.@.< X X +   O O o * * , 2 _ | %.| _ o.@.:.*.H , * $ b E ! H 4 ' D #.",
";.} &.X.6 W $., X.%.$.@.+.=.=.v G %. .4 -.R g s #.=.D r y J %.+.o.6 2 1 < 6 6 ` %.%.%.%._ 5 , 9  .o.| : # * N T P T - & H D D W ",
"$.$.%...$.&._ # @.&.:.9 } %.%.J $.%.o.e :.A g f H :.R i r i G $.%.%.%.%.%.%.$.*.%.` , # # . # 5 } ] , @ _ &.R T l * % b E T '  .",
";.%.=.+.$.%., 6 ;.=..., %.;.W :.=.*.@.O.:.R s I v :.;.J b i x J W W $.%.%.| / 2 * @ O @ + , ] %.^ # 5 } ;.=.&.M . 1 N E T M 2 G ",
"-.$.-.%.;.] < -.%.-.> 5 %.*.$.-.%.&.@.@.:.$.i Y s N :.*.K K &.;.:.@.O.6 , , # # O @ o % ^ %.] * 5 | ] @.@.%.5 * - D P T $ 1 E c ",
"%.%.&.%.%.` ..*.&.@.o _ *.$.%.O.%.W -.@.:.%.S f Y f b %.$.$.W $.%.=.-.-.+...3 # # 5 _ %.} 1 5 | | 5 4 X.+.; % F R P l * 1 R T E ",
"%.D G -.%.O.:.J %. .o +.$.$.%.O.;.$.;.-.:.;.W i I Y f a c R R W $.;.:.-. .4 6 ] %.%.] 1 5 | | ; o * ] ' , ; =.=.$.c @ $ ! E G < ",
"G u | =.%.-.%.J ;.6 # | W W %.q +.$.%.-.:.:.;.#.v s Y I f f z v b #.| | =.$.%.| 5 % , [ | / @ X = } _ % _ +.-.:.( * ; x U k o : ",
"v i O.K $.:.$.K =.9 % %.W W =.6 O.=.W ;.-.-.:.:.%.A b V L V a t x R %.%._ ^ # @ , ] %._ % X X ^ %.: 5 | {  .=._ # ( #.T c o : U ",
"s N o.v #.%.W W =.6 , %.W K =.6 6 :.W $.:.-.-.:.:.:.-.-.+.X./ / 6 6 * # . X , ] *._ , X X = | ` 5 ] ] = 3 ] 1 , | =.%.B * ^ P C ",
"g _ ] u W W %.$.%. .4 %.W W *.o.# @.;.K $.-.@.O.o.e w 4 , # O + O X + @ 2 ] $.| 5 4 # , _ %.^ ( | ~ . , | ; ; | :.=._ # M T v - ",
"v / B u W $.;.%.%.O.2 =.W W W -.3 < @.;.W $.;.@.e 3 o + O O O + o = 5 _ #.%.+.O.O.6 _ %.^ 1 _ { # . ^ | 5 _ ]  .+.` # H R b $ # ",
"P ..b i K $.:.%.W -.4 -.W $.K $.@.3 3 @.;.&.W &.;.-.@... .w < / M N z v #.=.:.@.| %.] , 5 %.5   + _ ( 5 ] 5 4 X.5 1 | :.$.- # k ",
"F @.a f J =.:.=.W :.e +.$.K $.K %.-.w 4 ..-.=.&.K $.$.%.#.W U L f s N K W $.%.=.[ , # ] } ,   % ] { ^ ] 1 # ' : 5 [ -.;.: , m D ",
"' @.L f R ;.-.:.W ;.O.e ;.W $.$.K $.=.+.@.@.:.=.H i i p d f L E #.%.T v v F _ 1 . : | _ < # _ ] ^ _ ] . + ' ~ _ {  .-.; , | W T ",
";.%.I a R :.-.-.$.W -.e @.*.K K $.K W &.W &.$.J D v b N M { +.X.T s L N ^ % X % ] =.o.w 0 | _ 5 | M   , } ^ _ ^ < | ; ; %.=.#.* ",
":.#.f f R :.@.O.;.W *.-.q @.;.$.J W W $.$.%.=.;.-.@.O.o.^ H V f L K 1 * . # 5 H %.-.@.| } 1 ; | 1   ~ | ` | 1 # { ; ; =.@.*.M * ",
"=.%.g L T :.@.O.-.%.W :.@.4 w +.;.=.$.W $.%.*.%.%.$.N i u p U %. .* X # 1 m v #.=.;.%.^ # _ ] = + ` _ ^ _ % @ ] ; ` X.) =.% M #.",
"%.*.f I v :.-.O.O.-.&.K :.@.3 # 3 6 / X.+.{ [ [ +.*.#.G J %.X.8 o < 6 N L b J G R _ % # ' | 4 4 ' _ ` ] O O ' ; _ ( 4 ] - = %.%.",
"#.%.i Y a %.:.@.O.@.:.$.W *.-..., X X X o = 4 O.-.=.$.$.-.@. .X.+.R I U #.E v N ; . ; =.+.e ` | 5 ` ` o = ] ^ ] 1 o ` ; : =.@.=.",
"W $.v g f b :.:.@.O.@.:.$.K $.;.-.@. .w w @.-.;.$.K %.;.=.%.%.U g P ] #.L b ; # # ^ #.:.:.| _ @ _ _ . 1 | ` | 5 + ] : ` {  .=.; ",
"W $.G a Y s R :.:.-.@.-.:.:.$.J &.%.=.;.=.%.&.W W W &.$.$.G i b ^ ] T L H , . ; c D $.%.%.; , ] _ > ( ] ~ | = O ] 5 ] _ < | ; ; ",
"K W $.v I Y s Z ;.:.:.:.:.;.=.&.J E K $.*.=.;.=.-.+.@.-.$.H | ` l s E / * * M v D G T ( o 1 =.o.6 | { 1 ] @ O ] : ] : o { 5 ; | ",
"$.J $.K i I Y s v H $.$.$.K W W W %.:.-.O.6 < , 4 ` | %.=.=.F i P %.w < / T U R P b ; + ; %.-.@.] : ; ' X o } 5 ' 1   { ` 1 ]  .",
"K $.J $.W a f Y I a v c G W %.;.-.-.O.4 # # 2 { } $.&.*.| %.#.$.-.O.X.W I #.$.P N # * ^ R ;.;.] 1 5 #.* 5 | 5 ] 1 X ` ` ` ] 3 ` ",
"J $.#.W %.$.b a g g g f a i N $.-.+.{ [ %.$.$.&.&.%.]  .@.%.%.:.+.#.L b _ G U M & # l b W $._ # _ | 9 5 } 6 ] 1 X _ ]  .| + : ' ",
"J G J J $.%.:.;.R N S v v i z G W %.;.*.&.&.$.| / , 6 +.W #.%.%.R i _ ( L E 2 & : P T G N ; # ] -.O.{ ' , | 5 X { ` ] [ . 5 ' = ",
"W J z k b D #.;.:.-.@... . .O.O.@.=.%.$.} ` < , 2 X.%.&.$.=.=.%.} X.c V ' 9 6 H L #.U x * # ( ;.-.=._ , | 5 o ] ` ] 5   1 ] 5 | ",
"=.W G y r u i v b Z B B B N B N v T =.@... .+.+.=.;.%.+. .+.%.%.%.H D +.O.+.P E ' U M @ % l R $.%.; , |  ., ' 5 ] _   1 | 6 +.5 ",
"o.:.%.$.b u u s g f g g f d p u b $.%.%.%.$.W $.=.X.< < [ $.%.=.=.$.;.:.R L H R U : o 1 D D G H , 1 =.@.o.%.1 _ ` . 1 +.` | 1 X ",
"o <  .@.-.| ' G J U U ! R R #.&.*.%.$.%.$.K %.+., 1 ] &.W |  .+.$.$.%.D k ^ c E ` , M S E D m @ 1 %.:.-.| , _ { o ^ | ` | , X ` ",
"# O @ # # < 5 6 3 4 4 9  .O.o.X.O.@.:.%.$.:.O.` ] $.$.[ 5 6 =.W &.=.%.H ] z E ..2 R Q H S M & % R $.%.] # ` { < : ' 2 | 1 X : ] ",
"O + @ @ # @ O @ X X @ @ + X o w @.;.W W %.%.| %.&.$.1 , ) ;.%.| @.| %.%.D $.@.+.U G %.L - & $ D G E ] @ ` -.e ` ' , +.1   ^ ' ; ",
"` , @ @ O O @ @ O O @ @ # 9 +.=.T v i x $.+.%.%.{ 9 ) =.;.| 6 / %.%.=.%.*.-.#.V M m Q 5 * M L T b ; o ` ;.@.+.] 2 | 1   _ ' : | ",
"$.%.+./ 6 2 1 * , 5 5 6 ' W U d f x M +.X.#.;.-.-.%.&.=.6 < _ &.}  .=.$.%.W b ^ N P  .< H ! #.U $ + ^ $.;.=._ = | ^ & { ] * %., ",
"%.$.&.&.$.%.%.$.' N v a d d L ' `  .F x i W *.$.W W +.2 5 $.&.^ 2 %.&.%.%.%.] b R O.` P D #.Q 1 * B b W #.; o [ X.4 ] ] ~ %.= X ",
"4 6  .X.| | | %.T v v v T *.-.' T f s P $.=.=.%.$.+.` } &.} 1 6 %.$.+.+.| =.W $.-.| P H D T 2 @ N b D N 1 o ' =. .| ` 1 =.1 X 1 ",
"O O o , 4  .@.:.%.$.$.$.R T f f L #.=.o.O.-.*.$.;.+.*.%._ < { :.+.6 X.&.%.=.*.;.W v ^ G P , * b T T b , o H =.-.| M < %.1 . 1 %.",
"@ = 4 e O.-.:.;.=.%.G i i V G _ / 6 * w +.J v G =.%.=.o.{ %.%./ 2 [ $.` X.$.%.*.G F b T w ` E T P x # o l $.=.%.; = %./ , 5 %.1 ",
"@ @ @ @ , < e O.=.&.G B ( , * @ X # o.#.f i ( +.H =.=.%.&.%.6 5 &.$.6 ] W %.=.;.+.D R @.+.U %.P b # @ k E G R 1 o | X.w _ } , ] ",
"% * 2 6 ` | %.$.%.| ` 1 @ @ @ # 2 } L f H / M v R %.$.W +. .' $.( , { *.| o.=.%.%.%.-.} v ' W R * , D E P x < # ' +.@.+.' # ] | ",
"| %.%.%.&.$.| ] < # + @ # # 6 M L g T X.' L a $.=.:.$.=.+.%.&.5 6 +.=. .0 K %.-.*.=.$.v M D E 2 6 ! E T k , O m $.:.;.] . ` %.@ "
};
